<svg xmlns="http://www.w3.org/2000/svg" width="26" height="26" viewBox="0 0 26 26" fill="none">
  <path d="M23.0664 20.3818C23.0664 20.589 22.9841 20.7878 22.8376 20.9343C22.6911 21.0808 22.4924 21.1631 22.2852 21.1631H3.53516C3.32796 21.1631 3.12924 21.0808 2.98273 20.9343C2.83622 20.7878 2.75391 20.589 2.75391 20.3818V4.75684C2.75391 4.54964 2.83622 4.35092 2.98273 4.20441C3.12924 4.0579 3.32796 3.97559 3.53516 3.97559C3.74236 3.97559 3.94107 4.0579 4.08758 4.20441C4.2341 4.35092 4.31641 4.54964 4.31641 4.75684V15.3711L9.23242 10.4541C9.30498 10.3815 9.39114 10.3238 9.48598 10.2845C9.58083 10.2452 9.68249 10.225 9.78516 10.225C9.88782 10.225 9.98949 10.2452 10.0843 10.2845C10.1792 10.3238 10.2653 10.3815 10.3379 10.4541L12.9102 13.0273L18.0557 7.88184H16.0352C15.828 7.88184 15.6292 7.79953 15.4827 7.65301C15.3362 7.5065 15.2539 7.30779 15.2539 7.10059C15.2539 6.89339 15.3362 6.69467 15.4827 6.54816C15.6292 6.40165 15.828 6.31934 16.0352 6.31934H19.9414C20.1486 6.31934 20.3473 6.40165 20.4938 6.54816C20.6403 6.69467 20.7227 6.89339 20.7227 7.10059V11.0068C20.7227 11.214 20.6403 11.4128 20.4938 11.5593C20.3473 11.7058 20.1486 11.7881 19.9414 11.7881C19.7342 11.7881 19.5355 11.7058 19.389 11.5593C19.2425 11.4128 19.1602 11.214 19.1602 11.0068V8.98633L13.4629 14.6846C13.3903 14.7572 13.3042 14.8148 13.2093 14.8541C13.1145 14.8935 13.0128 14.9137 12.9102 14.9137C12.8075 14.9137 12.7058 14.8935 12.611 14.8541C12.5161 14.8148 12.43 14.7572 12.3574 14.6846L9.78516 12.1113L4.31641 17.5801V19.6006H22.2852C22.4924 19.6006 22.6911 19.6829 22.8376 19.8294C22.9841 19.9759 23.0664 20.1746 23.0664 20.3818Z" fill="#8AA5FF"/>
</svg>