<svg xmlns="http://www.w3.org/2000/svg" width="25" height="26" viewBox="0 0 25 26" fill="none">
  <path d="M22.4932 14.0054C22.2024 13.7817 21.8641 13.6281 21.5043 13.5564C21.1446 13.4848 20.7732 13.4971 20.4189 13.5923L16.333 14.5317C16.4281 14.1302 16.431 13.7123 16.3416 13.3094C16.2522 12.9066 16.0728 12.5292 15.8167 12.2055C15.5607 11.8818 15.2348 11.6203 14.8633 11.4406C14.4919 11.2608 14.0845 11.1674 13.6719 11.1675H8.7832C8.37265 11.1665 7.96597 11.2468 7.58665 11.4038C7.20733 11.5609 6.8629 11.7916 6.57324 12.0825L4.36426 14.2925H1.5625C1.1481 14.2925 0.750671 14.4571 0.457646 14.7501C0.16462 15.0432 0 15.4406 0 15.855L0 19.7612C0 20.1756 0.16462 20.5731 0.457646 20.8661C0.750671 21.1591 1.1481 21.3237 1.5625 21.3237H11.7188C11.7826 21.3238 11.8463 21.3159 11.9082 21.3003L18.1582 19.7378C18.198 19.7283 18.2369 19.7152 18.2744 19.6987L22.0703 18.0835L22.1133 18.064C22.4781 17.8817 22.7905 17.6095 23.0211 17.2731C23.2516 16.9367 23.3927 16.5472 23.4311 16.1411C23.4695 15.7351 23.4039 15.326 23.2405 14.9524C23.0771 14.5787 22.8212 14.2528 22.4971 14.0054H22.4932ZM1.5625 15.855H3.90625V19.7612H1.5625V15.855ZM21.4287 16.6567L17.7178 18.2368L11.6211 19.7612H5.46875V15.397L7.67871 13.188C7.82328 13.0423 7.99537 12.9267 8.18498 12.8481C8.37459 12.7695 8.57794 12.7293 8.7832 12.73H13.6719C13.9827 12.73 14.2807 12.8534 14.5005 13.0732C14.7203 13.293 14.8438 13.5911 14.8438 13.9019C14.8438 14.2127 14.7203 14.5107 14.5005 14.7305C14.2807 14.9503 13.9827 15.0737 13.6719 15.0737H10.9375C10.7303 15.0737 10.5316 15.156 10.3851 15.3026C10.2386 15.4491 10.1562 15.6478 10.1562 15.855C10.1562 16.0622 10.2386 16.2609 10.3851 16.4074C10.5316 16.5539 10.7303 16.6362 10.9375 16.6362H14.0625C14.1213 16.6361 14.1799 16.6295 14.2373 16.6167L20.7803 15.1118L20.8105 15.104C21.0103 15.0486 21.2235 15.0689 21.4091 15.1612C21.5947 15.2535 21.7396 15.4112 21.816 15.6039C21.8923 15.7966 21.8947 16.0107 21.8227 16.2051C21.7507 16.3995 21.6093 16.5603 21.4258 16.6567H21.4287ZM16.0156 9.60498C16.2086 9.6052 16.4014 9.58952 16.5918 9.55811C16.806 10.1944 17.1979 10.756 17.7212 11.1766C18.2445 11.5972 18.8773 11.8592 19.5447 11.9315C20.2122 12.0039 20.8864 11.8836 21.4877 11.5849C22.089 11.2863 22.5921 10.8217 22.9377 10.2461C23.2833 9.67051 23.4569 9.00801 23.4379 8.33691C23.4189 7.66582 23.2081 7.01419 22.8305 6.45908C22.4529 5.90397 21.9243 5.46858 21.3071 5.20439C20.6899 4.9402 20.0099 4.85827 19.3477 4.96826C19.1414 4.35522 18.77 3.81097 18.2744 3.39539C17.7787 2.97981 17.178 2.70903 16.5384 2.61283C15.8988 2.51663 15.2451 2.59876 14.6491 2.85016C14.0532 3.10157 13.5381 3.51251 13.1607 4.03776C12.7832 4.56301 12.558 5.18221 12.5097 5.82722C12.4615 6.47223 12.5922 7.11804 12.8873 7.69359C13.1825 8.26913 13.6307 8.75209 14.1826 9.08933C14.7345 9.42656 15.3688 9.60499 16.0156 9.60498ZM21.875 8.43311C21.875 8.8194 21.7605 9.19702 21.5458 9.51821C21.3312 9.83939 21.0262 10.0897 20.6693 10.2376C20.3124 10.3854 19.9197 10.4241 19.5408 10.3487C19.162 10.2733 18.814 10.0873 18.5408 9.81417C18.2677 9.54103 18.0816 9.19301 18.0063 8.81414C17.9309 8.43527 17.9696 8.04256 18.1174 7.68568C18.2653 7.32879 18.5156 7.02375 18.8368 6.80914C19.158 6.59453 19.5356 6.47998 19.9219 6.47998C20.4399 6.47998 20.9367 6.68576 21.3029 7.05204C21.6692 7.41832 21.875 7.91511 21.875 8.43311ZM16.0156 4.13623C16.4417 4.13645 16.856 4.27598 17.1954 4.53357C17.5348 4.79116 17.7807 5.15267 17.8955 5.56299C17.4954 5.84453 17.1584 6.20648 16.9062 6.6257C16.6539 7.04492 16.492 7.51217 16.4307 7.99756C16.2943 8.02701 16.1552 8.04207 16.0156 8.04248C15.4976 8.04248 15.0008 7.83671 14.6346 7.47042C14.2683 7.10414 14.0625 6.60736 14.0625 6.08936C14.0625 5.57136 14.2683 5.07457 14.6346 4.70829C15.0008 4.34201 15.4976 4.13623 16.0156 4.13623Z" fill="#8AA5FF"/>
</svg>