<svg xmlns="http://www.w3.org/2000/svg" width="1441" height="427" viewBox="0 0 1441 427" fill="none">
  <path d="M85.1446 -421.128H0.465332V-336.449M85.1446 -421.128V-336.449M85.1446 -421.128H169.821M0.465332 -336.449H85.1446M0.465332 -336.449V-251.773M85.1446 -336.449H169.821M85.1446 -336.449V-251.773M169.821 -421.128V-336.449M169.821 -421.128H254.5M169.821 -336.449H254.5M169.821 -336.449V-251.773M85.1446 -251.773H0.465332M85.1446 -251.773H169.821M85.1446 -251.773V-167.093M0.465332 -251.773V-167.093M254.5 -421.128V-336.449M254.5 -421.128H339.18M254.5 -336.449H339.18M254.5 -336.449V-251.773M169.821 -251.773H254.5M169.821 -251.773V-167.093M339.18 -421.128V-336.449M339.18 -421.128H423.856M339.18 -336.449H423.856M339.18 -336.449V-251.773M254.5 -251.773H339.18M254.5 -251.773V-167.093M423.856 -421.128V-336.449M423.856 -421.128H508.536M423.856 -336.449H508.536M423.856 -336.449V-251.773M339.18 -251.773H423.856M339.18 -251.773V-167.093M508.536 -421.128V-336.449M508.536 -421.128H593.215M508.536 -336.449H593.215M508.536 -336.449V-251.773M423.856 -251.773H508.536M423.856 -251.773V-167.093M593.215 -421.128V-336.449M593.215 -421.128H677.891M593.215 -336.449H677.891M593.215 -336.449V-251.773M508.536 -251.773H593.215M508.536 -251.773V-167.093M677.891 -421.128V-336.449M677.891 -421.128H762.571M677.891 -336.449H762.571M677.891 -336.449V-251.773M593.215 -251.773H677.891M593.215 -251.773V-167.093M762.571 -421.128V-336.449M762.571 -421.128H847.25M762.571 -336.449H847.25M762.571 -336.449V-251.773M677.891 -251.773H762.571M677.891 -251.773V-167.093M847.25 -421.128V-336.449M847.25 -421.128H931.926M847.25 -336.449H931.926M847.25 -336.449V-251.773M762.571 -251.773H847.25M762.571 -251.773V-167.093M931.926 -421.128V-336.449M931.926 -421.128H1016.61M931.926 -336.449H1016.61M931.926 -336.449V-251.773M847.25 -251.773H931.926M847.25 -251.773V-167.093M1016.61 -421.128V-336.449M1016.61 -421.128H1101.28M1016.61 -336.449H1101.28M1016.61 -336.449V-251.773M931.926 -251.773H1016.61M931.926 -251.773V-167.093M1101.28 -421.128V-336.449M1101.28 -421.128H1185.96M1101.28 -336.449H1185.96M1101.28 -336.449V-251.773M1016.61 -251.773H1101.28M1016.61 -251.773V-167.093M1185.96 -421.128V-336.449M1185.96 -421.128H1270.64M1185.96 -336.449H1270.64M1185.96 -336.449V-251.773M1101.28 -251.773H1185.96M1101.28 -251.773V-167.093M1270.64 -421.128V-336.449M1270.64 -421.128H1355.32M1270.64 -336.449H1355.32M1270.64 -336.449V-251.773M1185.96 -251.773H1270.64M1185.96 -251.773V-167.093M1355.32 -421.128V-336.449M1355.32 -421.128H1440V-336.449M1355.32 -336.449H1440M1355.32 -336.449V-251.773M1270.64 -251.773H1355.32M1270.64 -251.773V-167.093M1440 -336.449V-251.773M1355.32 -251.773H1440M1355.32 -251.773V-167.093M1440 -251.773V-167.093M85.1446 -167.093H0.465332M85.1446 -167.093H169.821M85.1446 -167.093V-82.414M0.465332 -167.093V-82.414M169.821 -167.093H254.5M169.821 -167.093V-82.414M254.5 -167.093H339.18M254.5 -167.093V-82.414M339.18 -167.093H423.856M339.18 -167.093V-82.414M423.856 -167.093H508.536M423.856 -167.093V-82.414M508.536 -167.093H593.215M508.536 -167.093V-82.414M593.215 -167.093H677.891M593.215 -167.093V-82.414M677.891 -167.093H762.571M677.891 -167.093V-82.414M762.571 -167.093H847.25M762.571 -167.093V-82.414M847.25 -167.093H931.926M847.25 -167.093V-82.414M931.926 -167.093H1016.61M931.926 -167.093V-82.414M1016.61 -167.093H1101.28M1016.61 -167.093V-82.414M1101.28 -167.093H1185.96M1101.28 -167.093V-82.414M1185.96 -167.093H1270.64M1185.96 -167.093V-82.414M1270.64 -167.093H1355.32M1270.64 -167.093V-82.414M1355.32 -167.093H1440M1355.32 -167.093V-82.414M1440 -167.093V-82.414M85.1446 -82.414H0.465332M85.1446 -82.414H169.821M85.1446 -82.414V2.26248M0.465332 -82.414V2.26248M169.821 -82.414H254.5M169.821 -82.414V2.26248M254.5 -82.414H339.18M254.5 -82.414V2.26248M339.18 -82.414H423.856M339.18 -82.414V2.26248M423.856 -82.414H508.536M423.856 -82.414V2.26248M508.536 -82.414H593.215M508.536 -82.414V2.26248M593.215 -82.414H677.891M593.215 -82.414V2.26248M677.891 -82.414H762.571M677.891 -82.414V2.26248M762.571 -82.414H847.25M762.571 -82.414V2.26248M847.25 -82.414H931.926M847.25 -82.414V2.26248M931.926 -82.414H1016.61M931.926 -82.414V2.26248M1016.61 -82.414H1101.28M1016.61 -82.414V2.26248M1101.28 -82.414H1185.96M1101.28 -82.414V2.26248M1185.96 -82.414H1270.64M1185.96 -82.414V2.26248M1270.64 -82.414H1355.32M1270.64 -82.414V2.26248M1355.32 -82.414H1440M1355.32 -82.414V2.26248M1440 -82.414V2.26248M85.1446 2.26248H0.465332M85.1446 2.26248H169.821M85.1446 2.26248V86.9418M0.465332 2.26248V86.9418M169.821 2.26248H254.5M169.821 2.26248V86.9418M254.5 2.26248H339.18M254.5 2.26248V86.9418M339.18 2.26248H423.856M339.18 2.26248V86.9418M423.856 2.26248H508.536M423.856 2.26248V86.9418M508.536 2.26248H593.215M508.536 2.26248V86.9418M593.215 2.26248H677.891M593.215 2.26248V86.9418M677.891 2.26248H762.571M677.891 2.26248V86.9418M762.571 2.26248H847.25M762.571 2.26248V86.9418M847.25 2.26248H931.926M847.25 2.26248V86.9418M931.926 2.26248H1016.61M931.926 2.26248V86.9418M1016.61 2.26248H1101.28M1016.61 2.26248V86.9418M1101.28 2.26248H1185.96M1101.28 2.26248V86.9418M1185.96 2.26248H1270.64M1185.96 2.26248V86.9418M1270.64 2.26248H1355.32M1270.64 2.26248V86.9418M1355.32 2.26248H1440M1355.32 2.26248V86.9418M1440 2.26248V86.9418M85.1446 86.9418H0.465332M85.1446 86.9418H169.821M85.1446 86.9418V171.621M0.465332 86.9418V171.621M169.821 86.9418H254.5M169.821 86.9418V171.621M254.5 86.9418H339.18M254.5 86.9418V171.621M339.18 86.9418H423.856M339.18 86.9418V171.621M423.856 86.9418H508.536M423.856 86.9418V171.621M508.536 86.9418H593.215M508.536 86.9418V171.621M593.215 86.9418H677.891M593.215 86.9418V171.621M677.891 86.9418H762.571M677.891 86.9418V171.621M762.571 86.9418H847.25M762.571 86.9418V171.621M847.25 86.9418H931.926M847.25 86.9418V171.621M931.926 86.9418H1016.61M931.926 86.9418V171.621M1016.61 86.9418H1101.28M1016.61 86.9418V171.621M1101.28 86.9418H1185.96M1101.28 86.9418V171.621M1185.96 86.9418H1270.64M1185.96 86.9418V171.621M1270.64 86.9418H1355.32M1270.64 86.9418V171.621M1355.32 86.9418H1440M1355.32 86.9418V171.621M1440 86.9418V171.621M85.1446 171.621H0.465332M85.1446 171.621H169.821M85.1446 171.621V256.298M0.465332 171.621V256.298M169.821 171.621H254.5M169.821 171.621V256.298M254.5 171.621H339.18M254.5 171.621V256.298M339.18 171.621H423.856M339.18 171.621V256.298M423.856 171.621H508.536M423.856 171.621V256.298M508.536 171.621H593.215M508.536 171.621V256.298M593.215 171.621H677.891M593.215 171.621V256.298M677.891 171.621H762.571M677.891 171.621V256.298M762.571 171.621H847.25M762.571 171.621V256.298M847.25 171.621H931.926M847.25 171.621V256.298M931.926 171.621H1016.61M931.926 171.621V256.298M1016.61 171.621H1101.28M1016.61 171.621V256.298M1101.28 171.621H1185.96M1101.28 171.621V256.298M1185.96 171.621H1270.64M1185.96 171.621V256.298M1270.64 171.621H1355.32M1270.64 171.621V256.298M1355.32 171.621H1440M1355.32 171.621V256.298M1440 171.621V256.298M85.1446 256.298H0.465332M85.1446 256.298H169.821M85.1446 256.298V340.977M0.465332 256.298V340.977M169.821 256.298H254.5M169.821 256.298V340.977M254.5 256.298H339.18M254.5 256.298V340.977M339.18 256.298H423.856M339.18 256.298V340.977M423.856 256.298H508.536M423.856 256.298V340.977M508.536 256.298H593.215M508.536 256.298V340.977M593.215 256.298H677.891M593.215 256.298V340.977M677.891 256.298H762.571M677.891 256.298V340.977M762.571 256.298H847.25M762.571 256.298V340.977M847.25 256.298H931.926M847.25 256.298V340.977M931.926 256.298H1016.61M931.926 256.298V340.977M1016.61 256.298H1101.28M1016.61 256.298V340.977M1101.28 256.298H1185.96M1101.28 256.298V340.977M1185.96 256.298H1270.64M1185.96 256.298V340.977M1270.64 256.298H1355.32M1270.64 256.298V340.977M1355.32 256.298H1440M1355.32 256.298V340.977M1440 256.298V340.977M85.1446 340.977H0.465332M85.1446 340.977H169.821M85.1446 340.977V425.656M0.465332 340.977V425.656M169.821 340.977H254.5M169.821 340.977V425.656M254.5 340.977H339.18M254.5 340.977V425.656M339.18 340.977H423.856M339.18 340.977V425.656M423.856 340.977H508.536M423.856 340.977V425.656M508.536 340.977H593.215M508.536 340.977V425.656M593.215 340.977H677.891M593.215 340.977V425.656M677.891 340.977H762.571M677.891 340.977V425.656M762.571 340.977H847.25M762.571 340.977V425.656M847.25 340.977H931.926M847.25 340.977V425.656M931.926 340.977H1016.61M931.926 340.977V425.656M1016.61 340.977H1101.28M1016.61 340.977V425.656M1101.28 340.977H1185.96M1101.28 340.977V425.656M1185.96 340.977H1270.64M1185.96 340.977V425.656M1270.64 340.977H1355.32M1270.64 340.977V425.656M1355.32 340.977H1440M1355.32 340.977V425.656M1440 340.977V425.656M85.1446 425.656H0.465332M85.1446 425.656H169.821M85.1446 425.656V510.333M0.465332 425.656V510.333M169.821 425.656H254.5M169.821 425.656V510.333M254.5 425.656H339.18M254.5 425.656V510.333M339.18 425.656H423.856M339.18 425.656V510.333M423.856 425.656H508.536M423.856 425.656V510.333M508.536 425.656H593.215M508.536 425.656V510.333M593.215 425.656H677.891M593.215 425.656V510.333M677.891 425.656H762.571M677.891 425.656V510.333M762.571 425.656H847.25M762.571 425.656V510.333M847.25 425.656H931.926M847.25 425.656V510.333M931.926 425.656H1016.61M931.926 425.656V510.333M1016.61 425.656H1101.28M1016.61 425.656V510.333M1101.28 425.656H1185.96M1101.28 425.656V510.333M1185.96 425.656H1270.64M1185.96 425.656V510.333M1270.64 425.656H1355.32M1270.64 425.656V510.333M1355.32 425.656H1440M1355.32 425.656V510.333M1440 425.656V510.333M85.1446 510.333H0.465332M85.1446 510.333H169.821M85.1446 510.333V595.012M0.465332 510.333V595.012H85.1446M169.821 510.333H254.5M169.821 510.333V595.012M254.5 510.333H339.18M254.5 510.333V595.012M339.18 510.333H423.856M339.18 510.333V595.012M423.856 510.333H508.536M423.856 510.333V595.012M508.536 510.333H593.215M508.536 510.333V595.012M593.215 510.333H677.891M593.215 510.333V595.012M677.891 510.333H762.571M677.891 510.333V595.012M762.571 510.333H847.25M762.571 510.333V595.012M847.25 510.333H931.926M847.25 510.333V595.012M931.926 510.333H1016.61M931.926 510.333V595.012M1016.61 510.333H1101.28M1016.61 510.333V595.012M1101.28 510.333H1185.96M1101.28 510.333V595.012M1185.96 510.333H1270.64M1185.96 510.333V595.012M1270.64 510.333H1355.32M1270.64 510.333V595.012M1355.32 510.333H1440M1355.32 510.333V595.012M1440 510.333V595.012H1355.32M85.1446 595.012H169.821M169.821 595.012H254.5M254.5 595.012H339.18M339.18 595.012H423.856M423.856 595.012H508.536M508.536 595.012H593.215M593.215 595.012H677.891M677.891 595.012H762.571M762.571 595.012H847.25M847.25 595.012H931.926M931.926 595.012H1016.61M1016.61 595.012H1101.28M1101.28 595.012H1185.96M1185.96 595.012H1270.64M1270.64 595.012H1355.32" stroke="url(#paint0_radial_28_14)" stroke-opacity="0.08" stroke-width="2.80702"/>
  <defs>
    <radialGradient id="paint0_radial_28_14" cx="0" cy="0" r="1" gradientUnits="userSpaceOnUse" gradientTransform="translate(720.595 114.131) rotate(90) scale(479.843 720.851)">
      <stop stop-color="white"/>
      <stop offset="1" stop-color="white" stop-opacity="0"/>
    </radialGradient>
  </defs>
</svg>