<svg xmlns="http://www.w3.org/2000/svg" width="26" height="26" viewBox="0 0 26 26" fill="none">
  <path d="M12.5898 2.41309C7.33301 2.41309 3.21484 4.81543 3.21484 7.88184V17.2568C3.21484 20.3232 7.33301 22.7256 12.5898 22.7256C17.8467 22.7256 21.9648 20.3232 21.9648 17.2568V7.88184C21.9648 4.81543 17.8467 2.41309 12.5898 2.41309ZM20.4023 12.5693C20.4023 13.5088 19.6328 14.4668 18.292 15.1982C16.7822 16.0215 14.7568 16.4756 12.5898 16.4756C10.4229 16.4756 8.39746 16.0215 6.8877 15.1982C5.54688 14.4668 4.77734 13.5088 4.77734 12.5693V10.9443C6.44336 12.4092 9.29199 13.3506 12.5898 13.3506C15.8877 13.3506 18.7363 12.4053 20.4023 10.9443V12.5693ZM6.8877 5.25293C8.39746 4.42969 10.4229 3.97559 12.5898 3.97559C14.7568 3.97559 16.7822 4.42969 18.292 5.25293C19.6328 5.98438 20.4023 6.94238 20.4023 7.88184C20.4023 8.82129 19.6328 9.7793 18.292 10.5107C16.7822 11.334 14.7568 11.7881 12.5898 11.7881C10.4229 11.7881 8.39746 11.334 6.8877 10.5107C5.54688 9.7793 4.77734 8.82129 4.77734 7.88184C4.77734 6.94238 5.54688 5.98438 6.8877 5.25293ZM18.292 19.8857C16.7822 20.709 14.7568 21.1631 12.5898 21.1631C10.4229 21.1631 8.39746 20.709 6.8877 19.8857C5.54688 19.1543 4.77734 18.1963 4.77734 17.2568V15.6318C6.44336 17.0967 9.29199 18.0381 12.5898 18.0381C15.8877 18.0381 18.7363 17.0928 20.4023 15.6318V17.2568C20.4023 18.1963 19.6328 19.1543 18.292 19.8857Z" fill="#8AA5FF"/>
</svg>