<svg xmlns="http://www.w3.org/2000/svg" width="25" height="25" viewBox="0 0 25 25" fill="none">
  <g opacity="0.5">
    <path d="M22.0097 7.82199L9.90969 19.922C9.83945 19.9923 9.75605 20.0481 9.66424 20.0861C9.57243 20.1242 9.47402 20.1438 9.37464 20.1438C9.27526 20.1438 9.17685 20.1242 9.08504 20.0861C8.99323 20.0481 8.90983 19.9923 8.83959 19.922L3.54584 14.6282C3.40394 14.4863 3.32422 14.2939 3.32422 14.0932C3.32422 13.8925 3.40394 13.7001 3.54584 13.5581C3.68775 13.4162 3.88021 13.3365 4.08089 13.3365C4.28157 13.3365 4.47403 13.4162 4.61594 13.5581L9.37464 18.3178L20.9396 6.7519C21.0815 6.60999 21.274 6.53027 21.4746 6.53027C21.6753 6.53027 21.8678 6.60999 22.0097 6.7519C22.1516 6.8938 22.2313 7.08626 22.2313 7.28694C22.2313 7.48763 22.1516 7.68009 22.0097 7.82199Z" fill="white"/>
  </g>
</svg>