<svg xmlns="http://www.w3.org/2000/svg" width="26" height="26" viewBox="0 0 26 26" fill="none">
  <path d="M22.0938 6.52936L13.5 1.82721C13.2704 1.70034 13.0123 1.63379 12.75 1.63379C12.4877 1.63379 12.2296 1.70034 12 1.82721L3.40625 6.53131C3.16083 6.6656 2.95596 6.86331 2.81304 7.1038C2.67012 7.34429 2.59439 7.61875 2.59375 7.8985V17.2383C2.59439 17.5181 2.67012 17.7926 2.81304 18.033C2.95596 18.2735 3.16083 18.4713 3.40625 18.6055L12 23.3096C12.2296 23.4365 12.4877 23.5031 12.75 23.5031C13.0123 23.5031 13.2704 23.4365 13.5 23.3096L22.0938 18.6055C22.3392 18.4713 22.544 18.2735 22.687 18.033C22.8299 17.7926 22.9056 17.5181 22.9062 17.2383V7.89948C22.9061 7.61923 22.8307 7.34416 22.6877 7.10311C22.5448 6.86205 22.3396 6.66388 22.0938 6.52936ZM12.75 3.1944L20.5957 7.49127L17.6885 9.08307L9.8418 4.7862L12.75 3.1944ZM12.75 11.7882L4.9043 7.49127L8.21484 5.67877L16.0605 9.97565L12.75 11.7882ZM4.15625 8.85846L11.9688 13.1339V21.5118L4.15625 17.2393V8.85846ZM21.3438 17.2354L13.5312 21.5118V13.1378L16.6562 11.4278V14.9132C16.6562 15.1204 16.7386 15.3191 16.8851 15.4656C17.0316 15.6121 17.2303 15.6944 17.4375 15.6944C17.6447 15.6944 17.8434 15.6121 17.9899 15.4656C18.1364 15.3191 18.2188 15.1204 18.2188 14.9132V10.5723L21.3438 8.85846V17.2344V17.2354Z" fill="#8AA5FF"/>
</svg>