<svg xmlns="http://www.w3.org/2000/svg" width="120" height="28" viewBox="0 0 120 28" fill="none">
  <g clip-path="url(#clip0_28_309)">
    <mask id="mask0_28_309" style="mask-type:luminance" maskUnits="userSpaceOnUse" x="0" y="0" width="28" height="27">
      <path d="M0.8125 0.227539H27.4731V26.8882H0.8125V0.227539Z" fill="white"/>
    </mask>
    <g mask="url(#mask0_28_309)">
      <path d="M16.3579 1.34277V12.4512V23.5597M24.2125 4.59662L8.50324 20.3059M16.3563 12.4528H5.25098M24.2141 20.3059L8.50324 4.59662" stroke="white" stroke-width="2.49869" stroke-linecap="round" stroke-linejoin="round"/>
    </g>
    <path d="M38.7909 17.1648H32.1229L30.9775 20.4171H28.252L33.9569 4.47304H36.9807L42.6857 20.4171H39.9347L38.7909 17.1648ZM38.0579 15.0342L35.4688 7.63329L32.8575 15.0342H38.0579ZM49.7486 20.6249C48.7555 20.6249 47.8607 20.4488 47.0675 20.0966C46.3371 19.7689 45.6994 19.2652 45.2113 18.6307C44.7609 18.0264 44.5052 17.2993 44.4784 16.5461H47.1817C47.2293 17.0807 47.48 17.5297 47.9385 17.8978C48.4112 18.2484 48.9998 18.4245 49.7026 18.4245C50.4356 18.4245 51.0004 18.2864 51.3986 18.012C51.811 17.7217 52.0173 17.3552 52.0173 16.9126C52.0173 16.4398 51.7872 16.0876 51.3288 15.8591C50.8861 15.6291 50.1754 15.3769 49.1981 15.1024C48.4129 14.8963 47.6406 14.6441 46.8851 14.3472C46.2846 14.0999 45.7505 13.7152 45.3256 13.224C44.8972 12.7195 44.6846 12.0548 44.6846 11.2298C44.6846 10.5587 44.8829 9.94795 45.2811 9.39745C45.6777 8.83266 46.2425 8.39004 46.9755 8.06957C47.7243 7.74752 48.5794 7.58728 49.5424 7.58728C50.9781 7.58728 52.1315 7.95376 53.0009 8.68671C53.8877 9.40538 54.3605 10.3906 54.4224 11.6423H51.8095C51.7962 11.3814 51.7282 11.1262 51.6099 10.8933C51.4915 10.6605 51.3255 10.4551 51.1225 10.2906C50.71 9.95589 50.1532 9.78772 49.4504 9.78772C48.7634 9.78772 48.2367 9.91781 47.8687 10.1764C47.6973 10.2877 47.557 10.4407 47.461 10.6211C47.365 10.8015 47.3164 11.0033 47.3197 11.2076C47.3197 11.5439 47.4419 11.8263 47.6862 12.0548C47.9305 12.2848 48.2288 12.4673 48.5794 12.6053C48.9316 12.7275 49.4504 12.8877 50.1373 13.086C51.0543 13.3303 51.8031 13.5826 52.3838 13.8427C52.9787 14.0871 53.4911 14.4535 53.9179 14.9422C54.3462 15.4308 54.5683 16.0797 54.5826 16.8903C54.5826 17.6074 54.3843 18.2484 53.9861 18.8147C53.5895 19.3795 53.0247 19.8221 52.2917 20.1426C51.5731 20.4631 50.7259 20.6233 49.7486 20.6233V20.6249ZM60.4525 9.92416V16.9126C60.4525 17.3869 60.5588 17.7296 60.773 17.9438C61.0015 18.1421 61.3838 18.242 61.9184 18.242H63.5208V20.4187H61.46C60.2844 20.4187 59.3817 20.1426 58.7566 19.5937C58.13 19.0432 57.8174 18.15 57.8174 16.9126V9.92416H56.3277V7.79511H57.8174V4.65549H60.451V7.79353H63.5224V9.92416H60.4525ZM77.4992 13.7951C77.4992 14.2711 77.4674 14.6978 77.4072 15.0802H67.7614C67.8392 16.0876 68.212 16.8967 68.8846 17.5075C69.5573 18.1199 70.3823 18.4245 71.3595 18.4245C72.7636 18.4245 73.7567 17.8375 74.3373 16.6603H77.1549C76.7803 17.8112 76.0504 18.8138 75.0703 19.5239C74.0772 20.2584 72.8413 20.6249 71.3579 20.6249C70.1522 20.6249 69.0687 20.3568 68.1057 19.8221C67.1631 19.2767 66.387 18.4847 65.8608 17.5313C65.3262 16.5382 65.0581 15.3927 65.0581 14.095C65.0581 12.7957 65.3183 11.6582 65.837 10.6809C66.3417 9.71908 67.1135 8.92356 68.0597 8.39004C69.0227 7.8554 70.1221 7.58728 71.3595 7.58728C72.5494 7.58728 73.6123 7.84747 74.5436 8.36624C75.4748 8.8866 76.2014 9.61955 76.7202 10.5667C77.239 11.4979 77.4992 12.5751 77.4992 13.7967V13.7951ZM74.7736 12.9718C74.7578 12.0104 74.4135 11.2378 73.7424 10.6571C73.0698 10.078 72.2369 9.78772 71.2437 9.78772C70.3898 9.77029 69.5617 10.0815 68.9306 10.6571C68.2897 11.2235 67.9074 11.9945 67.7852 12.9718H74.7736ZM82.6822 9.62749C83.0629 8.98497 83.5674 8.4884 84.1941 8.1362C84.835 7.77132 85.5902 7.58728 86.4627 7.58728V10.2906H85.7964C84.7747 10.2906 83.9958 10.5508 83.4611 11.0696C82.9408 11.59 82.6822 12.4911 82.6822 13.7745V20.4187H80.0693V7.79353H82.6822V9.62749ZM90.1909 6.12139C89.9703 6.12663 89.7509 6.08669 89.5463 6.00403C89.3417 5.92136 89.1562 5.79771 89.0011 5.64069C88.8436 5.48557 88.7195 5.29982 88.6366 5.09491C88.5536 4.88999 88.5135 4.67025 88.5188 4.44925C88.5188 3.97489 88.679 3.57827 88.9995 3.25781C89.1548 3.10058 89.3406 2.97682 89.5455 2.89415C89.7504 2.81148 89.97 2.77164 90.1909 2.77711C90.651 2.77711 91.0397 2.93575 91.3602 3.25781C91.6806 3.57827 91.8409 3.97489 91.8409 4.44766C91.8409 4.9236 91.6822 5.32022 91.3602 5.64069C91.2085 5.79644 91.0264 5.91946 90.8253 6.00213C90.6242 6.08481 90.4083 6.1254 90.1909 6.12139ZM91.476 7.79353V20.4187H88.8615V7.79353H91.4728H91.476ZM99.4861 20.6249C98.4929 20.6249 97.5982 20.4488 96.8049 20.0966C96.0746 19.7689 95.4368 19.2652 94.9488 18.6307C94.4983 18.0264 94.2427 17.2993 94.2158 16.5461H96.9208C96.9652 17.0807 97.2174 17.5297 97.6759 17.8978C98.1503 18.2484 98.7388 18.4245 99.4401 18.4245C100.173 18.4245 100.738 18.2864 101.136 18.012C101.548 17.7217 101.755 17.3552 101.755 16.9126C101.755 16.4398 101.525 16.0876 101.066 15.8591C100.624 15.6291 99.9144 15.3769 98.9356 15.1024C98.1504 14.8963 97.378 14.6441 96.6225 14.3472C96.0226 14.0996 95.489 13.715 95.0646 13.224C94.6362 12.7195 94.4221 12.0548 94.4221 11.2298C94.4221 10.5587 94.6204 9.94795 95.0186 9.39745C95.4152 8.83266 95.98 8.39004 96.7145 8.06957C97.4617 7.74752 98.3168 7.58728 99.2798 7.58728C100.716 7.58728 101.869 7.95376 102.738 8.68671C103.625 9.40538 104.1 10.3906 104.16 11.6423H101.548C101.535 11.3813 101.467 11.126 101.348 10.8931C101.23 10.6602 101.063 10.4549 100.86 10.2906C100.447 9.95589 99.8922 9.78772 99.1878 9.78772C98.5009 9.78772 97.9742 9.91781 97.6077 10.1764C97.436 10.2875 97.2954 10.4404 97.1991 10.6208C97.1028 10.8012 97.054 11.0031 97.0572 11.2076C97.0572 11.5439 97.1793 11.8263 97.4237 12.0548C97.668 12.2848 97.9662 12.4673 98.3168 12.6053C98.669 12.7275 99.1894 12.8877 99.8748 13.086C100.792 13.3303 101.541 13.5826 102.121 13.8427C102.716 14.0871 103.229 14.4535 103.655 14.9422C104.084 15.4308 104.306 16.0797 104.322 16.8903C104.322 17.6074 104.122 18.2484 103.725 18.8147C103.329 19.3795 102.762 19.8221 102.029 20.1426C101.311 20.4631 100.463 20.6233 99.4861 20.6233V20.6249ZM112.137 14.1172L117.956 20.4187H114.427L109.755 14.9882V20.4187H107.144V3.46405H109.755V13.316L114.339 7.79511H117.957L112.137 14.1172Z" fill="white"/>
  </g>
  <defs>
    <clipPath id="clip0_28_309">
      <rect width="118.985" height="26.97" fill="white" transform="translate(0.8125 0.227539)"/>
    </clipPath>
  </defs>
</svg>