<svg xmlns="http://www.w3.org/2000/svg" width="83" height="30" viewBox="0 0 83 30" fill="none">
  <g clip-path="url(#clip0_28_289)">
    <path d="M28.4141 14.8195C28.4158 11.6401 27.278 8.56539 25.2073 6.15287C23.1365 3.74034 20.2697 2.14973 17.1269 1.66945C13.984 1.18917 10.773 1.85103 8.07625 3.535C5.37946 5.21897 3.3754 7.81357 2.42743 10.8483C2.31908 11.1939 2.2649 11.3667 2.26929 11.5834C2.27368 11.7591 2.32786 11.9773 2.40547 12.1354C2.50065 12.3287 2.64854 12.4766 2.94579 12.7724L17.1655 26.9921C17.4613 27.2893 17.6091 27.4372 17.8039 27.5339C17.9769 27.6142 18.1639 27.66 18.3545 27.6686C18.5712 27.673 18.744 27.6188 19.091 27.5104C21.7937 26.6633 24.1555 24.9755 25.8324 22.6928C27.5093 20.4102 28.4138 17.6519 28.4141 14.8195Z" stroke="white" stroke-width="1.92261" stroke-linecap="round" stroke-linejoin="round"/>
    <path d="M4.03249 11.6876C5.9349 11.5503 7.84457 11.8239 9.63187 12.4899C11.4192 13.1559 13.0423 14.1986 14.391 15.5473C15.7397 16.896 16.7824 18.5191 17.4484 20.3064C18.1144 22.0937 18.388 24.0034 18.2507 25.9058C18.2112 26.4578 18.1921 26.7346 18.0311 26.9044C17.9604 26.9753 17.8753 27.0301 17.7816 27.0653C17.6878 27.1004 17.5877 27.1149 17.4878 27.108C17.2535 27.0845 17.0412 26.8722 16.618 26.449L3.49071 13.3188C3.06606 12.8941 2.85374 12.6833 2.83178 12.449C2.82482 12.3495 2.83926 12.2497 2.87411 12.1562C2.90897 12.0628 2.96344 11.9778 3.03385 11.9072C3.20371 11.7461 3.48046 11.7256 4.03249 11.6876Z" stroke="white" stroke-width="1.92261" stroke-linecap="round" stroke-linejoin="round"/>
    <path d="M37.4491 8.94629C38.8153 8.94629 40.0087 9.20986 41.0293 9.73993C42.0341 10.2294 42.865 11.0148 43.4102 11.9905C43.9769 12.9628 44.2595 14.1006 44.2595 15.4053C44.2595 16.7085 43.9769 17.8418 43.4102 18.8009C42.8561 19.7606 42.0267 20.5319 41.0293 21.0149C40.0087 21.5201 38.8153 21.772 37.4491 21.772H33.2598V8.94482L37.4491 8.94629ZM37.4491 20.0558C38.95 20.0558 40.0994 19.6502 40.9004 18.8375C41.6999 18.0263 42.1011 16.8813 42.1011 15.4053C42.1011 13.9161 41.6999 12.7549 40.9004 11.9173C40.1009 11.0798 38.95 10.6624 37.4491 10.6624H35.3639V20.0558H37.4491ZM55.5535 11.604V21.772H53.4493V20.5713C53.099 21.0045 52.6495 21.347 52.1388 21.5699C51.6036 21.805 51.0248 21.9243 50.4402 21.9199C49.691 21.9315 48.9503 21.7606 48.2819 21.422C47.6508 21.0854 47.1317 20.5719 46.7883 19.9445C46.431 19.2929 46.2524 18.5051 46.2524 17.5826V11.604H48.3375V17.2693C48.3375 18.1801 48.5645 18.88 49.0199 19.3735C49.4753 19.8523 50.0976 20.0924 50.8839 20.0924C51.6717 20.0924 52.2926 19.8523 52.7479 19.3735C53.2165 18.8815 53.4508 18.1801 53.4508 17.2693V11.6025L55.5535 11.604ZM63.4607 11.437C64.2602 11.437 64.9733 11.604 65.6014 11.9349C66.2399 12.2673 66.7392 12.7593 67.095 13.4124C67.4523 14.064 67.6309 14.8518 67.6309 15.7743V21.772H65.5458V16.0876C65.5458 15.1783 65.3174 14.4828 64.862 14.0025C64.4081 13.5105 63.7857 13.2645 62.9979 13.2645C62.2116 13.2645 61.5834 13.5105 61.1163 14.0025C60.6609 14.4828 60.4325 15.1783 60.4325 16.0876V21.772H58.3298V11.604H60.434V12.7666C60.7781 12.3478 61.2144 12.0213 61.7431 11.7885C62.2848 11.5542 62.8559 11.437 63.4592 11.437H63.4607ZM79.6337 16.439C79.6337 16.8198 79.6103 17.1639 79.5605 17.4728H71.791C71.8525 18.284 72.1541 18.9371 72.6944 19.4276C73.2362 19.9211 73.901 20.1671 74.6888 20.1671C75.8207 20.1671 76.6202 19.6927 77.0873 18.7468H79.3569C79.055 19.6737 78.467 20.4811 77.6774 21.053C76.8779 21.6431 75.8822 21.9389 74.6888 21.9389C73.7165 21.9389 72.8438 21.7222 72.0677 21.2917C71.3085 20.8524 70.6833 20.2145 70.2593 19.4467C69.8288 18.6472 69.6136 17.7247 69.6136 16.6792C69.6136 15.6322 69.8215 14.717 70.2403 13.9293C70.6469 13.1545 71.2688 12.5138 72.0311 12.0843C72.8072 11.6523 73.6916 11.437 74.6888 11.437C75.6479 11.437 76.5031 11.6464 77.2542 12.0652C78.0039 12.4825 78.5882 13.0741 79.007 13.837C79.4258 14.5867 79.6337 15.4536 79.6337 16.439ZM77.4373 15.7743C77.4256 14.9982 77.1488 14.3773 76.607 13.9102C76.0652 13.4416 75.3961 13.2088 74.5966 13.2088C73.8703 13.2088 73.2494 13.4431 72.7325 13.9102C72.2156 14.3641 71.9081 14.9865 71.81 15.7743H77.4373Z" fill="white"/>
    <mask id="mask0_28_289" style="mask-type:luminance" maskUnits="userSpaceOnUse" x="31" y="7" width="50" height="17">
      <path d="M31.876 7.12915H80.1974V23.2363H31.876V7.12915Z" fill="white"/>
      <path d="M37.4491 8.94629C38.8153 8.94629 40.0087 9.20986 41.0293 9.73993C42.0341 10.2294 42.865 11.0148 43.4102 11.9905C43.9769 12.9628 44.2595 14.1006 44.2595 15.4053C44.2595 16.7085 43.9769 17.8418 43.4102 18.8009C42.8561 19.7606 42.0267 20.5319 41.0293 21.0149C40.0087 21.5201 38.8153 21.772 37.4491 21.772H33.2598V8.94482L37.4491 8.94629ZM37.4491 20.0558C38.95 20.0558 40.0994 19.6502 40.9004 18.8375C41.6999 18.0263 42.1011 16.8813 42.1011 15.4053C42.1011 13.9161 41.6999 12.7549 40.9004 11.9173C40.1009 11.0798 38.95 10.6624 37.4491 10.6624H35.3639V20.0558H37.4491ZM55.5535 11.604V21.772H53.4493V20.5713C53.099 21.0045 52.6495 21.347 52.1388 21.5699C51.6036 21.805 51.0248 21.9243 50.4402 21.9199C49.691 21.9315 48.9503 21.7606 48.2819 21.422C47.6508 21.0854 47.1317 20.5719 46.7883 19.9445C46.431 19.2929 46.2524 18.5051 46.2524 17.5826V11.604H48.3375V17.2693C48.3375 18.1801 48.5645 18.88 49.0199 19.3735C49.4753 19.8523 50.0976 20.0924 50.8839 20.0924C51.6717 20.0924 52.2926 19.8523 52.7479 19.3735C53.2165 18.8815 53.4508 18.1801 53.4508 17.2693V11.6025L55.5535 11.604ZM63.4607 11.437C64.2602 11.437 64.9733 11.604 65.6014 11.9349C66.2399 12.2673 66.7392 12.7593 67.095 13.4124C67.4523 14.064 67.6309 14.8518 67.6309 15.7743V21.772H65.5458V16.0876C65.5458 15.1783 65.3174 14.4828 64.862 14.0025C64.4081 13.5105 63.7857 13.2645 62.9979 13.2645C62.2116 13.2645 61.5834 13.5105 61.1163 14.0025C60.6609 14.4828 60.4325 15.1783 60.4325 16.0876V21.772H58.3298V11.604H60.434V12.7666C60.7781 12.3478 61.2144 12.0213 61.7431 11.7885C62.2848 11.5542 62.8559 11.437 63.4592 11.437H63.4607ZM79.6337 16.439C79.6337 16.8198 79.6103 17.1639 79.5605 17.4728H71.791C71.8525 18.284 72.1541 18.9371 72.6944 19.4276C73.2362 19.9211 73.901 20.1671 74.6888 20.1671C75.8207 20.1671 76.6202 19.6927 77.0873 18.7468H79.3569C79.055 19.6737 78.467 20.4811 77.6774 21.053C76.8779 21.6431 75.8822 21.9389 74.6888 21.9389C73.7165 21.9389 72.8438 21.7222 72.0677 21.2917C71.3085 20.8524 70.6833 20.2145 70.2593 19.4467C69.8288 18.6472 69.6136 17.7247 69.6136 16.6792C69.6136 15.6322 69.8215 14.717 70.2403 13.9293C70.6469 13.1545 71.2688 12.5138 72.0311 12.0843C72.8072 11.6523 73.6916 11.437 74.6888 11.437C75.6479 11.437 76.5031 11.6464 77.2542 12.0652C78.0039 12.4825 78.5882 13.0741 79.007 13.837C79.4258 14.5867 79.6337 15.4536 79.6337 16.439ZM77.4373 15.7743C77.4256 14.9982 77.1488 14.3773 76.607 13.9102C76.0652 13.4416 75.3961 13.2088 74.5966 13.2088C73.8703 13.2088 73.2494 13.4431 72.7325 13.9102C72.2156 14.3641 71.9081 14.9865 71.81 15.7743H77.4373Z" fill="black"/>
    </mask>
    <g mask="url(#mask0_28_289)">
      <path d="M41.0291 9.73856L40.8534 10.0812L40.8578 10.0827L41.0291 9.73856ZM43.41 11.9906L43.0747 12.1795L43.0777 12.1839L43.41 11.9906ZM43.41 18.801L43.0791 18.6063L43.0762 18.6092L43.41 18.801ZM41.0291 21.015L41.199 21.3606H41.2019L41.0291 21.015ZM33.2596 21.7721H32.8745V22.1572H33.2596V21.7721ZM33.2596 8.94492V8.56128H32.8745V8.94639L33.2596 8.94492ZM35.3623 10.6625V10.2774H34.9772V10.6625H35.3623ZM35.3623 20.0559H34.9772V20.441H35.3623V20.0559ZM37.4475 9.33003C38.7639 9.33003 39.8928 9.58481 40.8505 10.0812L41.2048 9.39739C40.1198 8.83656 38.862 8.56274 37.4475 8.56274V9.33003ZM40.8563 10.0827C41.8228 10.5659 42.5578 11.2644 43.0733 12.1795L43.7439 11.8032C43.161 10.7599 42.273 9.91994 41.199 9.39592L40.8563 10.0841V10.0827ZM43.0777 12.1839C43.6048 13.0889 43.8728 14.1578 43.8728 15.4053H44.6415C44.6415 14.0436 44.3457 12.837 43.741 11.7974L43.0777 12.1839ZM43.8728 15.4053C43.8728 16.6529 43.6033 17.7145 43.0777 18.6063L43.7395 18.9958C44.3457 17.9679 44.6415 16.7657 44.6415 15.4053H43.8728ZM43.0762 18.6092C42.56 19.5041 41.7865 20.223 40.8563 20.6724L41.199 21.3606C42.2641 20.8435 43.1496 20.0187 43.741 18.9929L43.0762 18.6092ZM40.8578 20.6709C39.8987 21.1439 38.7653 21.3884 37.4475 21.3884V22.1572C38.8605 22.1572 40.1139 21.8951 41.1975 21.3606L40.8578 20.6709ZM37.4475 21.3884H33.2582L33.2596 22.1572H37.4475V21.3884ZM33.6433 21.7721V8.94492H32.873L32.8745 21.7721H33.6433ZM33.2582 9.33003H37.4475V8.56274L33.2596 8.56128L33.2582 9.33003ZM37.4475 20.441C39.0172 20.441 40.2794 20.0135 41.1726 19.1085L40.625 18.5667C39.9177 19.2842 38.8795 19.6708 37.4475 19.6708V20.441ZM41.1726 19.1085C42.0629 18.2036 42.4832 16.9516 42.4832 15.4039H41.7144C41.7144 16.8111 41.3337 17.8478 40.625 18.5667L41.1726 19.1085ZM42.4832 15.4039C42.4832 13.8474 42.0629 12.5778 41.177 11.6509L40.6206 12.1825C41.3337 12.9292 41.7144 13.9865 41.7144 15.4039H42.4832ZM41.177 11.6509C40.2838 10.7182 39.0201 10.2774 37.4475 10.2774V11.0462C38.8766 11.0462 39.9133 11.4415 40.6206 12.1825L41.177 11.6509ZM37.4475 10.2774H35.3623V11.0462H37.4475V10.2774ZM34.9772 10.6625V20.0559H35.746V10.6625H34.9772ZM35.3623 20.441H37.4475V19.6708H35.3623V20.441ZM55.5519 11.6041H55.9356V11.2175H55.5519V11.6041ZM55.5519 21.7721V22.1572H55.9356V21.7721H55.5519ZM53.4477 21.7721H53.0641V22.1572H53.4477V21.7721ZM53.4477 20.5714H53.8328V19.4702L53.1461 20.3341L53.4477 20.5714ZM52.1372 21.57L52.2924 21.9214L52.2968 21.9185L52.1372 21.57ZM48.2803 21.4221L48.1002 21.7618H48.1031L48.2803 21.4221ZM46.7867 19.9446L46.4484 20.1291L46.4514 20.135L46.7852 19.9446H46.7867ZM46.2508 11.6041V11.2175H45.8657V11.6026L46.2508 11.6041ZM48.3359 11.6041H48.721V11.2175H48.3359V11.6041ZM49.0183 19.3736L48.7357 19.6342L48.74 19.6371L49.0183 19.3736ZM53.4492 11.6041V11.2175H53.0626V11.6026H53.4477L53.4492 11.6041ZM55.1668 11.6041V21.7721H55.9356V11.6041H55.1668ZM55.5519 21.3884H53.4477V22.1572H55.5519V21.3884ZM53.8328 21.7721V20.5714H53.0626L53.0641 21.7721H53.8328ZM53.1461 20.3341C52.8562 20.7002 52.4711 20.996 51.979 21.2186L52.2968 21.9185C52.8869 21.6491 53.3745 21.283 53.7494 20.8115L53.1461 20.3341ZM51.982 21.2171C51.4961 21.4304 50.9707 21.5387 50.4401 21.5349V22.3036C51.0775 22.3077 51.7086 22.1775 52.2924 21.9214L51.982 21.2171ZM50.4401 21.5349C49.7521 21.547 49.0716 21.3912 48.4574 21.0809L48.1031 21.7618C48.803 22.125 49.5849 22.3036 50.4401 22.3036V21.5349ZM48.4604 21.0809C47.8941 20.7793 47.4283 20.3187 47.1205 19.7557L46.4514 20.135C46.854 20.8466 47.4032 21.3957 48.1002 21.7618L48.4604 21.0824V21.0809ZM47.1235 19.7601C46.8043 19.1774 46.6344 18.4569 46.6344 17.5827H45.8657C45.8657 18.555 46.0545 19.4072 46.4484 20.1291L47.1235 19.7601ZM46.6344 17.5827V11.6041L45.8657 11.6026V17.5827H46.6344ZM46.2508 11.9892H48.3359V11.2175H46.2508V11.9862V11.9892ZM47.9508 11.6041V17.2694H48.721V11.6041H47.9508ZM47.9508 17.2694C47.9508 18.2417 48.1953 19.0485 48.7357 19.6342L49.3009 19.1115C48.9319 18.7132 48.721 18.1187 48.721 17.2694H47.9508ZM48.74 19.6371C49.2818 20.2082 50.011 20.4776 50.8823 20.4776V19.7089C50.1794 19.7089 49.6669 19.4966 49.2979 19.1085L48.74 19.6371ZM50.8823 20.4776C51.7535 20.4776 52.4842 20.2082 53.026 19.6371L52.4681 19.1085C52.0991 19.4966 51.5866 19.7089 50.8823 19.7089V20.4776ZM53.026 19.6371C53.5824 19.0514 53.8328 18.2431 53.8328 17.2694H53.0626C53.0626 18.1157 52.8474 18.7088 52.4681 19.1085L53.026 19.6371ZM53.8328 17.2694V11.6026H53.0626V17.2694H53.8328ZM53.4477 11.9877H55.5519V11.2175L53.4477 11.219V11.9877ZM65.5998 11.935L65.4197 12.2747L65.4227 12.2762L65.5998 11.935ZM67.6293 21.7735V22.1572H68.013V21.7721H67.6293V21.7735ZM65.5442 21.7735H65.1591V22.1572H65.5442V21.7721V21.7735ZM64.8604 14.0026L64.5792 14.2632L64.5822 14.2676L64.8604 14.0026ZM60.4309 21.7721V22.1572H60.816V21.7721H60.4309ZM58.3282 21.7721H57.9431V22.1572H58.3282V21.7721ZM58.3282 11.6041V11.2175H57.9431V11.6026L58.3282 11.6041ZM60.4324 11.6041H60.816V11.2175H60.4309V11.6026L60.4324 11.6041ZM60.4324 12.7667H60.0473V13.8371L60.7282 13.0112L60.4324 12.7667ZM61.7414 11.7886L61.5892 11.4357H61.5862L61.7414 11.7871V11.7886ZM63.4576 11.8222C64.2044 11.8222 64.8545 11.976 65.4197 12.2762L65.7785 11.5953C65.0618 11.2262 64.265 11.0401 63.459 11.0535L63.4576 11.8222ZM65.4227 12.2762C65.9923 12.5734 66.4345 13.0083 66.7566 13.597L67.4302 13.228C67.0569 12.5282 66.4799 11.9583 65.7755 11.5938L65.4197 12.2762H65.4227ZM66.7566 13.597C67.0758 14.1797 67.2442 14.9002 67.2442 15.7744H68.013C68.013 14.8021 67.8255 13.9484 67.4317 13.2265L66.7566 13.597ZM67.2442 15.7744V21.7721H68.013V15.7744H67.2442ZM67.6293 21.3884H65.5442V22.1572H67.6293V21.3884ZM65.9278 21.7721V16.0877H65.1591V21.7721H65.9278ZM65.9278 16.0877C65.9278 15.1169 65.6848 14.313 65.14 13.7375L64.5822 14.2676C64.9482 14.6527 65.1591 15.2384 65.1591 16.0877H65.9278ZM65.143 13.7419C64.6012 13.1562 63.8705 12.8795 62.9963 12.8795V13.6482C63.6977 13.6482 64.2088 13.8635 64.5778 14.2632L65.143 13.7419ZM62.9963 12.8795C62.1222 12.8795 61.3871 13.1577 60.835 13.7375L61.3929 14.2676C61.7766 13.8635 62.2964 13.6482 62.9963 13.6482V12.8795ZM60.835 13.7375C60.2903 14.313 60.0473 15.1169 60.0473 16.0877H60.816C60.816 15.2384 61.0283 14.6527 61.3929 14.2676L60.8365 13.7375H60.835ZM60.0473 16.0877V21.7721H60.816V16.0877H60.0473ZM60.4309 21.3884H58.3282V22.1572H60.4309V21.3884ZM58.7118 21.7721V11.6041L57.9431 11.6026V21.7721H58.7118ZM58.3282 11.9877H60.4324V11.219L58.3282 11.2175V11.9877ZM60.0473 11.6041V12.7667H60.816V11.6041H60.0473ZM60.7282 13.0098C61.0327 12.6422 61.4193 12.3509 61.8967 12.14L61.5862 11.4357C61.0238 11.6774 60.5266 12.0501 60.1351 12.5207L60.7282 13.0112V13.0098ZM61.8937 12.1415C62.3879 11.9282 62.9194 11.8195 63.4576 11.8222L63.459 11.0535C62.8045 11.0535 62.1807 11.1809 61.5892 11.4357L61.8937 12.1415ZM79.5589 17.4715V17.8566H79.8869L79.9381 17.533L79.5589 17.4729V17.4715ZM71.7894 17.4715V17.0878H71.375L71.4057 17.5007L71.7894 17.4715ZM77.0857 18.7454V18.3632H76.847L76.7416 18.577L77.0857 18.7469V18.7454ZM79.3553 18.7454L79.7214 18.8655L79.8869 18.3617H79.3553V18.7454ZM72.0661 21.2918L71.8728 21.6242L71.8787 21.6286L72.0661 21.2918ZM70.2577 19.4468L69.9195 19.6298L69.9224 19.6357L70.2577 19.4468ZM79.0054 13.8371L78.6686 14.0216V14.0231L79.0054 13.8371ZM77.4371 15.7744V16.1595H77.8266L77.8208 15.7685L77.4371 15.7744ZM72.7309 13.9103L72.9842 14.1988L72.9886 14.1959L72.7309 13.9103ZM71.8084 15.7744L71.4262 15.726L71.3721 16.1595H71.8069V15.7744H71.8084ZM79.247 16.4391C79.247 16.8052 79.225 17.1274 79.1796 17.4114L79.9381 17.533C79.9923 17.202 80.0172 16.836 80.0172 16.4391H79.247ZM79.5589 17.0878H71.7894V17.8566H79.5589V17.0878ZM71.4057 17.5007C71.4745 18.3998 71.8128 19.1466 72.4351 19.7118L72.952 19.1437C72.4922 18.7264 72.2272 18.1699 72.173 17.4436L71.4057 17.5007ZM72.4351 19.7118C73.053 20.2741 73.8116 20.5509 74.6872 20.5509V19.7821C73.9873 19.7821 73.4177 19.5669 72.952 19.1437L72.4351 19.7133V19.7118ZM74.6872 20.5509C75.3066 20.5509 75.8601 20.4205 76.3316 20.1409C76.8045 19.8626 77.1692 19.4468 77.4298 18.9152L76.7416 18.577C76.5697 18.9515 76.2904 19.265 75.9392 19.4805C75.6112 19.6752 75.1982 19.7821 74.6872 19.7821V20.5509ZM77.0857 19.1305H79.3553V18.3617H77.0857V19.1305ZM78.9893 18.6253C78.7127 19.4771 78.1728 20.219 77.4474 20.7441L77.9042 21.3606C78.7576 20.7413 79.3946 19.8679 79.7214 18.8655L78.9893 18.6253ZM77.4474 20.7441C76.7269 21.2771 75.8147 21.5539 74.6872 21.5539V22.3226C75.9465 22.3226 77.0271 22.0107 77.9042 21.3621L77.4474 20.7441ZM74.6872 21.5539C73.8376 21.5679 72.9987 21.3621 72.2521 20.9565L71.8787 21.6286C72.7163 22.0942 73.6563 22.3226 74.6872 22.3226V21.5539ZM72.2594 20.9594C71.5595 20.5544 70.9834 19.9661 70.593 19.2579L69.9224 19.6357C70.3801 20.4631 71.0544 21.1505 71.8728 21.6242L72.2594 20.9594ZM70.596 19.2652C70.2006 18.5287 69.9956 17.6691 69.9956 16.6793H69.2269C69.2269 17.7775 69.4538 18.7659 69.9195 19.6298L70.596 19.2637V19.2652ZM69.9956 16.6793C69.9956 15.6836 70.1948 14.8328 70.5784 14.1095L69.899 13.7478C69.4465 14.6 69.2269 15.5811 69.2269 16.6793H69.9956ZM70.5769 14.1109C70.9488 13.4002 71.5184 12.8124 72.2169 12.4182L71.8406 11.749C71.0152 12.2143 70.3416 12.9078 69.9004 13.7463L70.5769 14.1124V14.1109ZM72.2169 12.4197C72.9271 12.0243 73.7471 11.8222 74.6872 11.8222V11.0535C73.6329 11.0535 72.6811 11.2805 71.8421 11.7476L72.2169 12.4197ZM74.6872 11.8222C75.5892 11.8222 76.3784 12.0185 77.0652 12.4006L77.4386 11.7285C76.6244 11.2746 75.7049 11.0535 74.6872 11.0535V11.8222ZM77.0652 12.4006C77.7505 12.7828 78.2835 13.3217 78.6686 14.0216L79.3422 13.6511C78.905 12.8411 78.2442 12.1737 77.4386 11.7285L77.0652 12.4006ZM78.6686 14.0231C79.0508 14.7098 79.247 15.5108 79.247 16.4391H80.0172C80.0172 15.3995 79.7961 14.4653 79.3407 13.6497L78.6686 14.0231ZM77.8208 15.7685C77.8061 14.8943 77.4884 14.1651 76.8573 13.6189L76.355 14.2017C76.806 14.5912 77.0418 15.1052 77.052 15.7802L77.8208 15.7685ZM76.8602 13.6189C76.2408 13.0845 75.4779 12.8238 74.5979 12.8238V13.594C75.3154 13.594 75.8952 13.802 76.3579 14.2017L76.8602 13.6189ZM74.5979 12.8238C73.7808 12.8238 73.0662 13.0903 72.4747 13.6248L72.9915 14.1959C73.4293 13.7955 74.0048 13.5799 74.5979 13.594V12.8238ZM72.479 13.6219C71.8816 14.149 71.5375 14.8606 71.4292 15.726L72.192 15.8227C72.2799 15.1125 72.5523 14.5824 72.9872 14.1988L72.479 13.6219ZM71.8099 16.158H77.44V15.3892H71.8084V16.1595L71.8099 16.158Z" fill="white"/>
    </g>
  </g>
  <defs>
    <clipPath id="clip0_28_289">
      <rect width="82" height="29.2857" fill="white" transform="translate(0.805176 0.0595703)"/>
    </clipPath>
  </defs>
</svg>