<svg xmlns="http://www.w3.org/2000/svg" width="80" height="28" viewBox="0 0 80 28" fill="none">
  <g clip-path="url(#clip0_28_318)">
    <path d="M8.07408 25.9679H78.7822V22.5961H8.07408C7.1833 22.5631 6.34002 22.186 5.72151 21.5441C5.103 20.9022 4.75743 20.0455 4.75743 19.1541C4.75743 18.2627 5.103 17.406 5.72151 16.7642C6.34002 16.1223 7.1833 15.7451 8.07408 15.7121H18.3077V12.3388H8.07408C7.16109 12.3375 6.28589 11.9742 5.64046 11.3285C4.99503 10.6827 4.63209 9.80737 4.63126 8.89439C4.63126 6.99523 6.1765 5.44999 8.07566 5.44999H18.3077V2.08301H8.07408C6.26795 2.0851 4.53643 2.80361 3.25945 4.08088C1.98248 5.35815 1.26437 7.08985 1.2627 8.89597C1.2627 10.9421 2.187 12.7543 3.6169 14.0057L3.63744 14.0231L3.6169 14.042C2.18542 15.2934 1.2627 17.1088 1.2627 19.1517C1.26478 20.9578 1.98271 22.6893 3.25916 23.9669C4.53561 25.2446 6.26807 25.9641 8.07408 25.9679Z" fill="white" stroke="white" stroke-width="0.0474"/>
    <path d="M28.3205 19.6652C27.0297 19.6652 25.9031 19.3698 24.9393 18.7789C23.9709 18.1804 23.1932 17.3182 22.6973 16.2935C22.1649 15.2302 21.8994 13.9867 21.8994 12.5631C21.8994 11.1332 22.1649 9.88504 22.6973 8.8138C23.1918 7.78557 23.9704 6.9204 24.9409 6.32056C25.9016 5.72964 27.0297 5.4326 28.3221 5.4326C29.6114 5.4326 30.7395 5.72964 31.7017 6.32056C32.6655 6.91306 33.4113 7.74256 33.9453 8.8138C34.4762 9.88504 34.7417 11.1332 34.7417 12.5631C34.7417 13.9851 34.4762 15.2302 33.9438 16.2935C33.4479 17.3182 32.6701 18.1804 31.7017 18.7789C30.7379 19.3698 29.6114 19.6652 28.3205 19.6652ZM28.33 17.4153C29.1674 17.4153 29.861 17.1941 30.4109 16.7517C30.9752 16.2891 31.3979 15.6769 31.6306 14.9853C31.9067 14.2047 32.0431 13.3816 32.0335 12.5537C32.0428 11.7294 31.9064 10.9099 31.6306 10.1331C31.3983 9.43595 30.9759 8.81757 30.4109 8.3477C29.861 7.89898 29.1674 7.67462 28.33 7.67462C27.4863 7.67462 26.7864 7.89898 26.2318 8.3477C25.6804 8.79642 25.2711 9.3905 25.0025 10.1331C24.7387 10.8678 24.6075 11.6752 24.6075 12.5537C24.6075 13.4385 24.7387 14.249 25.0025 14.9853C25.2711 15.72 25.6819 16.3093 26.2318 16.7517C26.7864 17.1941 27.4863 17.4153 28.33 17.4153ZM43.5375 19.6668C42.2467 19.6668 41.1201 19.3698 40.1563 18.7789C39.1879 18.1804 38.4102 17.3182 37.9143 16.2935C37.3834 15.2302 37.1164 13.9867 37.1164 12.5631C37.1164 11.1332 37.3834 9.88504 37.9143 8.8138C38.4087 7.78552 39.1873 6.92033 40.1579 6.32056C41.1201 5.72964 42.2467 5.4326 43.5391 5.4326C44.83 5.4326 45.9565 5.72964 46.9203 6.32056C47.8809 6.91306 48.6283 7.74256 49.1607 8.8138C49.6932 9.88504 49.9586 11.1332 49.9586 12.5631C49.9586 13.9851 49.6932 15.2302 49.1607 16.2935C48.6648 17.3182 47.8871 18.1804 46.9187 18.7789C45.9565 19.3698 44.83 19.6668 43.5375 19.6668ZM43.547 17.4153C44.3844 17.4153 45.078 17.1941 45.6279 16.7517C46.1777 16.3093 46.5838 15.72 46.8476 14.9853C47.1237 14.2047 47.2601 13.3816 47.2505 12.5537C47.2598 11.7294 47.1234 10.9099 46.8476 10.1331C46.6152 9.43599 46.1928 8.81763 45.6279 8.3477C45.078 7.89898 44.3844 7.67462 43.547 7.67462C42.7033 7.67462 42.0049 7.89898 41.4488 8.3477C40.8989 8.79642 40.4881 9.3905 40.2195 10.1331C39.9496 10.9112 39.8159 11.7301 39.8245 12.5537C39.8245 13.4385 39.9572 14.249 40.2195 14.9853C40.4881 15.72 40.8989 16.3093 41.4488 16.7517C42.0049 17.1941 42.7033 17.4153 43.547 17.4153ZM55.4191 14.7151L55.4017 11.4413H55.8678L61.3568 5.61114H64.5673L58.3074 12.2487H57.8855L55.4191 14.7151ZM52.9527 19.3887V1.02124H55.634V19.3887H52.9527ZM61.6522 19.3887L56.7195 12.8412L58.5681 10.9673L64.9434 19.3887H61.6522ZM77.3337 8.97654L74.9037 9.4063C74.7957 9.084 74.6315 8.78337 74.4186 8.51834C74.1843 8.22215 73.8833 7.98556 73.5401 7.82788C73.1688 7.64776 72.7059 7.55928 72.1497 7.55928C71.3913 7.55928 70.7562 7.72834 70.249 8.06962C69.7402 8.40458 69.4859 8.8375 69.4859 9.36996C69.4859 9.83132 69.6565 10.201 69.9978 10.4823C70.3375 10.7635 70.8889 10.9942 71.6473 11.1727L73.8356 11.6752C75.1028 11.9675 76.0476 12.4194 76.6701 13.0292C77.2926 13.6391 77.6023 14.4307 77.6023 15.4056C77.6023 16.2319 77.3637 16.9666 76.885 17.6128C76.4126 18.2527 75.7521 18.7536 74.9037 19.1186C74.06 19.4835 73.0819 19.6668 71.9696 19.6668C70.4275 19.6668 69.1699 19.3366 68.1934 18.6793C67.2201 18.0157 66.6229 17.074 66.4001 15.8543L68.9929 15.4593C69.1541 16.1355 69.4859 16.6474 69.9883 16.9935C70.4907 17.3347 71.1449 17.5038 71.9522 17.5038C72.8307 17.5038 73.5338 17.3221 74.06 16.9571C74.5861 16.5874 74.85 16.1355 74.85 15.6031C74.8533 15.3977 74.8116 15.1941 74.7278 15.0065C74.644 14.819 74.5201 14.6521 74.3649 14.5176C74.0489 14.2253 73.5607 14.0041 72.9034 13.854L70.5713 13.3437C69.2852 13.0498 68.3356 12.5853 67.7194 11.9438C67.1095 11.3039 66.8046 10.4949 66.8046 9.51374C66.7898 8.74655 67.0292 7.99602 67.4856 7.37916C67.9406 6.76928 68.5679 6.2937 69.3689 5.95242C70.1716 5.6064 71.088 5.4326 72.1229 5.4326C73.6112 5.4326 74.7836 5.7565 75.6384 6.40114C76.4932 7.04104 77.0588 7.89898 77.3337 8.97654Z" fill="white"/>
    <mask id="mask0_28_318" style="mask-type:luminance" maskUnits="userSpaceOnUse" x="20" y="0" width="60" height="21">
      <path d="M20.7158 0.428711H79.1758V20.9687H20.7158V0.428711Z" fill="white"/>
      <path d="M28.3205 19.6652C27.0297 19.6652 25.9031 19.3698 24.9393 18.7789C23.9709 18.1804 23.1932 17.3182 22.6973 16.2935C22.1649 15.2302 21.8994 13.9867 21.8994 12.5631C21.8994 11.1332 22.1649 9.88504 22.6973 8.8138C23.1918 7.78557 23.9704 6.9204 24.9409 6.32056C25.9016 5.72964 27.0297 5.4326 28.3221 5.4326C29.6114 5.4326 30.7395 5.72964 31.7017 6.32056C32.6655 6.91306 33.4113 7.74256 33.9453 8.8138C34.4762 9.88504 34.7417 11.1332 34.7417 12.5631C34.7417 13.9851 34.4762 15.2302 33.9438 16.2935C33.4479 17.3182 32.6701 18.1804 31.7017 18.7789C30.7379 19.3698 29.6114 19.6652 28.3205 19.6652ZM28.33 17.4153C29.1674 17.4153 29.861 17.1941 30.4109 16.7517C30.9752 16.2891 31.3979 15.6769 31.6306 14.9853C31.9067 14.2047 32.0431 13.3816 32.0335 12.5537C32.0428 11.7294 31.9064 10.9099 31.6306 10.1331C31.3983 9.43595 30.9759 8.81757 30.4109 8.3477C29.861 7.89898 29.1674 7.67462 28.33 7.67462C27.4863 7.67462 26.7864 7.89898 26.2318 8.3477C25.6804 8.79642 25.2711 9.3905 25.0025 10.1331C24.7387 10.8678 24.6075 11.6752 24.6075 12.5537C24.6075 13.4385 24.7387 14.249 25.0025 14.9853C25.2711 15.72 25.6819 16.3093 26.2318 16.7517C26.7864 17.1941 27.4863 17.4153 28.33 17.4153ZM43.5375 19.6668C42.2467 19.6668 41.1201 19.3698 40.1563 18.7789C39.1879 18.1804 38.4102 17.3182 37.9143 16.2935C37.3834 15.2302 37.1164 13.9867 37.1164 12.5631C37.1164 11.1332 37.3834 9.88504 37.9143 8.8138C38.4087 7.78552 39.1873 6.92033 40.1579 6.32056C41.1201 5.72964 42.2467 5.4326 43.5391 5.4326C44.83 5.4326 45.9565 5.72964 46.9203 6.32056C47.8809 6.91306 48.6283 7.74256 49.1607 8.8138C49.6932 9.88504 49.9586 11.1332 49.9586 12.5631C49.9586 13.9851 49.6932 15.2302 49.1607 16.2935C48.6648 17.3182 47.8871 18.1804 46.9187 18.7789C45.9565 19.3698 44.83 19.6668 43.5375 19.6668ZM43.547 17.4153C44.3844 17.4153 45.078 17.1941 45.6279 16.7517C46.1777 16.3093 46.5838 15.72 46.8476 14.9853C47.1237 14.2047 47.2601 13.3816 47.2505 12.5537C47.2598 11.7294 47.1234 10.9099 46.8476 10.1331C46.6152 9.43599 46.1928 8.81763 45.6279 8.3477C45.078 7.89898 44.3844 7.67462 43.547 7.67462C42.7033 7.67462 42.0049 7.89898 41.4488 8.3477C40.8989 8.79642 40.4881 9.3905 40.2195 10.1331C39.9496 10.9112 39.8159 11.7301 39.8245 12.5537C39.8245 13.4385 39.9572 14.249 40.2195 14.9853C40.4881 15.72 40.8989 16.3093 41.4488 16.7517C42.0049 17.1941 42.7033 17.4153 43.547 17.4153ZM55.4191 14.7151L55.4017 11.4413H55.8678L61.3568 5.61114H64.5673L58.3074 12.2487H57.8855L55.4191 14.7151ZM52.9527 19.3887V1.02124H55.634V19.3887H52.9527ZM61.6522 19.3887L56.7195 12.8412L58.5681 10.9673L64.9434 19.3887H61.6522ZM77.3337 8.97654L74.9037 9.4063C74.7957 9.084 74.6315 8.78337 74.4186 8.51834C74.1843 8.22215 73.8833 7.98556 73.5401 7.82788C73.1688 7.64776 72.7059 7.55928 72.1497 7.55928C71.3913 7.55928 70.7562 7.72834 70.249 8.06962C69.7402 8.40458 69.4859 8.8375 69.4859 9.36996C69.4859 9.83132 69.6565 10.201 69.9978 10.4823C70.3375 10.7635 70.8889 10.9942 71.6473 11.1727L73.8356 11.6752C75.1028 11.9675 76.0476 12.4194 76.6701 13.0292C77.2926 13.6391 77.6023 14.4307 77.6023 15.4056C77.6023 16.2319 77.3637 16.9666 76.885 17.6128C76.4126 18.2527 75.7521 18.7536 74.9037 19.1186C74.06 19.4835 73.0819 19.6668 71.9696 19.6668C70.4275 19.6668 69.1699 19.3366 68.1934 18.6793C67.2201 18.0157 66.6229 17.074 66.4001 15.8543L68.9929 15.4593C69.1541 16.1355 69.4859 16.6474 69.9883 16.9935C70.4907 17.3347 71.1449 17.5038 71.9522 17.5038C72.8307 17.5038 73.5338 17.3221 74.06 16.9571C74.5861 16.5874 74.85 16.1355 74.85 15.6031C74.8533 15.3977 74.8116 15.1941 74.7278 15.0065C74.644 14.819 74.5201 14.6521 74.3649 14.5176C74.0489 14.2253 73.5607 14.0041 72.9034 13.854L70.5713 13.3437C69.2852 13.0498 68.3356 12.5853 67.7194 11.9438C67.1095 11.3039 66.8046 10.4949 66.8046 9.51374C66.7898 8.74655 67.0292 7.99602 67.4856 7.37916C67.9406 6.76928 68.5679 6.2937 69.3689 5.95242C70.1716 5.6064 71.088 5.4326 72.1229 5.4326C73.6112 5.4326 74.7836 5.7565 75.6384 6.40114C76.4932 7.04104 77.0588 7.89898 77.3337 8.97654Z" fill="black"/>
    </mask>
    <g mask="url(#mask0_28_318)">
      <path d="M24.9404 6.32056L25.1285 6.62866L24.9388 6.32056H24.9404ZM31.6302 14.9853L31.2905 14.8605V14.8636L31.6302 14.9853ZM31.6302 10.1331L31.2889 10.2532L31.2905 10.2563L31.6302 10.1331ZM25.002 14.9837L24.6624 15.1054V15.1085L25.002 14.9837ZM28.3201 19.305C27.0861 19.305 26.0259 19.0238 25.1285 18.4708L24.7492 19.087C25.7762 19.7174 26.9723 20.0271 28.3201 20.0271V19.305ZM25.1285 18.4708C24.2172 17.9079 23.4854 17.0967 23.0192 16.1324L22.3745 16.4547C22.9354 17.5765 23.727 18.4565 24.7508 19.0854L25.1285 18.4708ZM23.0192 16.1324C22.5167 15.1275 22.2607 13.9409 22.2607 12.5616H21.5387C21.5387 14.031 21.812 15.3313 22.3745 16.4547L23.0192 16.1324ZM22.2607 12.5616C22.2607 11.1791 22.5167 9.98616 23.0192 8.97496L22.3745 8.65422C21.812 9.78234 21.5371 11.089 21.5371 12.5631H22.2592L22.2607 12.5616ZM23.0192 8.97496C23.4836 8.00735 24.2156 7.19311 25.1285 6.62866L24.7492 6.01246C23.722 6.64859 22.898 7.56521 22.3745 8.65422L23.0192 8.97496ZM25.1285 6.62866C26.0259 6.07566 27.0861 5.79442 28.3201 5.79442V5.07078C26.9723 5.07078 25.7762 5.38046 24.7492 6.01246L25.1285 6.62866ZM28.3201 5.79442C29.554 5.79442 30.6142 6.07566 31.5116 6.62866L31.8908 6.01246C30.8638 5.38046 29.6678 5.07078 28.3201 5.07078V5.79442ZM31.5116 6.62866C32.4138 7.18166 33.1169 7.9606 33.621 8.97496L34.2672 8.65422C33.743 7.56558 32.9185 6.64952 31.8908 6.01404L31.5116 6.62866ZM33.621 8.97496C34.1234 9.98616 34.3793 11.1775 34.3793 12.56H35.103C35.103 11.0874 34.8281 9.78076 34.2656 8.65264L33.621 8.97496ZM34.3793 12.56C34.3793 13.9393 34.1234 15.1259 33.621 16.1308L34.2656 16.4531C34.8281 15.3313 35.103 14.0278 35.103 12.56L34.3809 12.5616L34.3793 12.56ZM33.621 16.1308C33.1547 17.0951 32.4229 17.9063 31.5116 18.4692L31.8908 19.0854C32.9163 18.4513 33.74 17.5382 34.2656 16.4531L33.621 16.1308ZM31.5116 18.4692C30.6142 19.0222 29.554 19.305 28.3201 19.305V20.0271C29.6694 20.0271 30.8638 19.7174 31.8908 19.0854L31.5116 18.4692ZM28.3295 17.774C29.2333 17.774 30.0107 17.5338 30.6363 17.0314L30.1829 16.4689C29.7089 16.8497 29.099 17.0535 28.3295 17.0535V17.774ZM30.6363 17.0314C31.2527 16.5265 31.7148 15.8586 31.9699 15.1038L31.2905 14.8636C31.0471 15.543 30.6742 16.0723 30.1829 16.4689L30.6363 17.0314ZM31.9683 15.1069C32.2594 14.287 32.4038 13.4221 32.3949 12.5521H31.6728C31.6728 13.4005 31.5433 14.1684 31.2905 14.8589L31.9683 15.1069ZM32.3949 12.5521C32.3949 11.6357 32.2527 10.7872 31.9683 10.0083L31.2905 10.2563C31.5433 10.9484 31.6728 11.7099 31.6728 12.5521H32.3949ZM31.9683 10.0083C31.7141 9.24939 31.2534 8.57797 30.6379 8.06646L30.1813 8.62736C30.6758 9.03026 31.0456 9.56588 31.2889 10.2516L31.9683 10.0083ZM30.6379 8.06646C30.0122 7.55612 29.2333 7.3128 28.3295 7.3128V8.03486C29.099 8.03486 29.7073 8.24184 30.1813 8.62736L30.6379 8.06646ZM28.328 7.31438C27.4179 7.31438 26.6342 7.5577 26.0022 8.06646L26.4557 8.62894C26.936 8.24026 27.5522 8.03644 28.328 8.03644V7.31438ZM26.0006 8.06804C25.3843 8.58014 24.9208 9.25193 24.6608 10.0099L25.3402 10.2563C25.5882 9.56904 25.9611 9.03026 26.4557 8.62894L26.0006 8.06804ZM24.6608 10.0099C24.3766 10.8275 24.236 11.6897 24.2452 12.5552H24.9657C24.9657 11.7115 25.0921 10.9468 25.3402 10.2563L24.6608 10.0099ZM24.2452 12.5552C24.2452 13.4748 24.3811 14.3264 24.6608 15.1054L25.3402 14.8636C25.083 14.121 24.9563 13.3411 24.9657 12.5552H24.2452ZM24.6608 15.1085C24.9499 15.8985 25.3955 16.5447 26.0038 17.033L26.4557 16.4705C25.9412 16.0477 25.5545 15.4903 25.3386 14.8605L24.6608 15.1085ZM26.0038 17.033C26.6358 17.5354 27.4195 17.7756 28.3264 17.7756V17.0535C27.5506 17.0535 26.9344 16.8513 26.4541 16.4689L26.0038 17.033ZM46.8455 14.9853L46.5058 14.8605V14.8636L46.8455 14.9853ZM46.8455 10.1331L46.5058 10.2532V10.2563L46.8455 10.1331ZM40.2174 14.9837L39.8778 15.1054V15.1085L40.2174 14.9837ZM43.5354 19.305C42.3015 19.305 41.2413 19.0238 40.3438 18.4708L39.9646 19.087C40.9916 19.7174 42.1877 20.0271 43.5354 20.0271V19.305ZM40.3438 18.4708C39.4331 17.9077 38.702 17.0965 38.2361 16.1324L37.5899 16.4547C38.1508 17.5765 38.9424 18.4565 39.9662 19.0854L40.3438 18.4708ZM38.2361 16.1324C37.7321 15.1275 37.4746 13.9409 37.4746 12.5616H36.7541C36.7541 14.031 37.029 15.3313 37.5899 16.4547L38.2361 16.1324ZM37.4746 12.5616C37.4746 11.1791 37.7321 9.98616 38.2361 8.97496L37.5883 8.65422C37.0274 9.78234 36.7541 11.0874 36.7541 12.5616H37.4746ZM38.2361 8.97496C38.7001 8.00756 39.4316 7.19334 40.3438 6.62866L39.9646 6.01246C38.9374 6.64859 38.1118 7.56521 37.5883 8.65422L38.2361 8.97496ZM40.3438 6.62866C41.2413 6.07566 42.3015 5.79442 43.5354 5.79442V5.07078C42.1877 5.07078 40.9916 5.38046 39.9646 6.01246L40.3438 6.62866ZM43.5354 5.79442C44.771 5.79442 45.8312 6.07566 46.7286 6.62866L47.1063 6.01246C46.0793 5.38046 44.8848 5.07078 43.5354 5.07078V5.79442ZM46.7286 6.62866C47.6308 7.18166 48.3323 7.9606 48.8363 8.97496L49.4826 8.65422C48.9584 7.56558 48.1339 6.64952 47.1063 6.01404L46.7286 6.62866ZM48.8363 8.97496C49.3388 9.98616 49.5963 11.1791 49.5963 12.5616H50.3184C50.3184 11.089 50.045 9.78234 49.4826 8.65422L48.8363 8.97496ZM49.5963 12.5616C49.5963 13.9409 49.3372 15.1275 48.8363 16.1324L49.4826 16.4547C50.0435 15.3329 50.3184 14.0294 50.3184 12.5616H49.5963ZM48.8363 16.1324C48.3702 17.0967 47.64 17.908 46.7286 18.4708L47.1063 19.087C48.1323 18.453 48.9565 17.54 49.4826 16.4547L48.8363 16.1324ZM46.7286 18.4708C45.8296 19.0238 44.7679 19.305 43.5354 19.305V20.0271C44.8832 20.0271 46.0793 19.7174 47.1063 19.0854L46.7286 18.4708ZM43.5449 17.7756C44.4487 17.7756 45.226 17.5354 45.8517 17.033L45.3999 16.4705C44.9259 16.8513 44.316 17.0551 43.5449 17.0551V17.7756ZM45.8517 17.033C46.4585 16.5432 46.9024 15.8969 47.1852 15.1054L46.5058 14.8636C46.2625 15.543 45.8928 16.0739 45.3999 16.4705L45.8517 17.033ZM47.1837 15.1085C47.4748 14.2886 47.6192 13.4237 47.6103 12.5537H46.8882C46.8976 13.3391 46.7682 14.1201 46.5058 14.8605L47.1837 15.1085ZM47.6103 12.5537C47.6103 11.6373 47.4681 10.7888 47.1837 10.0099L46.5058 10.2563C46.7586 10.9484 46.8882 11.7115 46.8882 12.5537H47.6103ZM47.1852 10.0114C46.9307 9.25237 46.4694 8.57935 45.8533 8.06804L45.3983 8.62736C45.8912 9.03026 46.2625 9.56746 46.5058 10.2532L47.1852 10.0114ZM45.8533 8.06804C45.2276 7.5577 44.4487 7.31438 43.5449 7.31438V8.03644C44.3144 8.03644 44.9227 8.24184 45.3983 8.62736L45.8533 8.06804ZM43.5449 7.31438C42.6349 7.31438 41.8512 7.5577 41.2192 8.06646L41.6726 8.62894C42.1529 8.24026 42.7692 8.03644 43.5449 8.03644V7.31438ZM41.2176 8.06804C40.6013 8.5802 40.1378 9.25197 39.8778 10.0099L40.5571 10.2563C40.8052 9.56904 41.1797 9.03026 41.6742 8.62894L41.2176 8.06804ZM39.8778 10.0099C39.5935 10.8275 39.4529 11.6897 39.4622 12.5552H40.1843C40.1843 11.7115 40.3107 10.9468 40.5571 10.2563L39.8778 10.0099ZM39.4622 12.5552C39.4622 13.4748 39.5997 14.3264 39.8778 15.1054L40.5571 14.8636C40.3005 14.1209 40.1744 13.341 40.1843 12.5552H39.4622ZM39.8793 15.1085C40.1685 15.8985 40.614 16.5447 41.2208 17.033L41.6726 16.4705C41.1582 16.0477 40.7715 15.4903 40.5556 14.8605L39.8793 15.1085ZM41.2208 17.033C41.8528 17.5354 42.6364 17.7756 43.5449 17.7756V17.0535C42.7676 17.0535 42.1514 16.8513 41.671 16.4689L41.2208 17.033ZM55.417 14.7151L55.0568 14.7167L55.0616 15.5825L55.6714 14.9711L55.417 14.7151ZM55.3997 11.4413V11.0811H55.0363L55.0379 11.4445L55.3997 11.4413ZM55.8658 11.4413V11.8032H56.0206L56.128 11.6894L55.8658 11.4413ZM61.3547 5.61114V5.2509H61.1983L61.0908 5.36466L61.3547 5.61114ZM64.5653 5.61114L64.8275 5.8592L65.4011 5.2509H64.5637V5.61272L64.5653 5.61114ZM58.3053 12.2487V12.6105H58.4601L58.5676 12.4968L58.3053 12.2487ZM57.8834 12.2487V11.8885H57.7333L57.6291 11.9943L57.8834 12.2487ZM52.9507 19.3887H52.5904V19.749H52.9507V19.3887ZM52.9507 1.02124V0.659424H52.5904V1.02124H52.9507ZM55.6319 1.02124H55.9938V0.659424H55.6319V1.02124ZM55.6319 19.3887V19.749H55.9938V19.3887H55.6319ZM61.6501 19.3887L61.3626 19.6052L61.47 19.7474H61.6501V19.3887ZM56.7174 12.8412L56.4598 12.5884L56.2418 12.8096L56.4298 13.0577L56.7174 12.8412ZM58.566 10.9673L58.852 10.7493L58.6008 10.4175L58.3085 10.713L58.5644 10.9658L58.566 10.9673ZM64.9413 19.3887V19.749H65.6681L65.2289 19.1707L64.9413 19.3887ZM55.7773 14.7135L55.7599 11.4398L55.0379 11.4445L55.0568 14.7167L55.7773 14.7135ZM55.3981 11.8032H55.8658V11.0811H55.3997L55.3981 11.8032ZM56.128 11.6894L61.617 5.8592L61.0908 5.36466L55.6035 11.1949L56.128 11.6894ZM61.3547 5.97296H64.5653L64.5637 5.2509H61.3547V5.97296ZM64.303 5.36466L58.043 12.0007L58.5676 12.4968L64.8275 5.8592L64.303 5.36466ZM58.3053 11.8885H57.8834V12.6105H58.3053V11.8885ZM57.6291 11.9943L55.1611 14.4591L55.6714 14.9711L58.1378 12.5047L57.6291 11.9943ZM53.3109 19.3887V1.02124H52.5904V19.3887H53.3109ZM52.9523 1.38148H55.6335L55.6319 0.659424H52.9507L52.9523 1.38148ZM55.2733 1.02124V19.3887H55.9938V1.02124H55.2733ZM55.6335 19.0269H52.9523L52.9507 19.749H55.6319L55.6335 19.0269ZM61.9393 19.1707L57.0065 12.6232L56.4298 13.0577L61.3626 19.6052L61.9393 19.1707ZM56.9765 13.094L58.8235 11.2201L58.31 10.7145L56.4614 12.5884L56.9765 13.094ZM58.2784 11.1838L64.6553 19.6052L65.2289 19.1707L58.8536 10.7493L58.2784 11.1838ZM64.9429 19.0269H61.6517V19.749H64.9429V19.0269ZM77.3332 8.97496L77.3964 9.33046L77.7788 9.26252L77.684 8.88648L77.3332 8.97496ZM74.9032 9.4063L74.5603 9.5169L74.6567 9.8171L74.9664 9.7618L74.9032 9.4063ZM74.4181 8.51834L74.1322 8.73796L74.1353 8.74112L74.4181 8.51834ZM70.2485 8.06962L70.446 8.36982H70.4492L70.2485 8.06962ZM66.3996 15.8543L66.3459 15.4972L65.9794 15.5541L66.0457 15.9175L66.3996 15.8543ZM68.9924 15.4593L69.3432 15.3755L69.2658 15.0532L68.9387 15.1038L68.9924 15.4593ZM69.9878 16.9935L69.7824 17.2905H69.7856L69.9878 16.9935ZM74.0595 16.9571L74.2649 17.2542L74.268 17.2526L74.0595 16.9571ZM74.3644 14.5176L74.1195 14.783L74.1227 14.7846L74.3644 14.5176ZM75.6379 6.40114L75.4198 6.69028H75.4214L75.6379 6.40114ZM77.27 8.62104L74.84 9.0508L74.9664 9.7618L77.3964 9.33046L77.27 8.61946V8.62104ZM75.2461 9.29412C75.1251 8.93184 74.9411 8.59379 74.7025 8.29556L74.1353 8.74112C74.3344 8.99234 74.4718 9.24988 74.5603 9.5169L75.2461 9.29412ZM74.7041 8.29872C74.4355 7.95757 74.0917 7.68472 73.6977 7.5024L73.3817 8.15178C73.7103 8.30978 73.9568 8.51044 74.1322 8.73796L74.7041 8.29872ZM73.6977 7.5024C73.2647 7.29226 72.7417 7.19746 72.1492 7.19746V7.91952C72.6691 7.91952 73.0751 8.00326 73.3817 8.15178L73.6977 7.5024ZM72.1492 7.19746C71.3355 7.19746 70.6277 7.38074 70.0479 7.76942L70.4492 8.36982C70.8853 8.07752 71.4446 7.91952 72.1492 7.91952V7.19746ZM70.0494 7.76784C69.4569 8.1581 69.1251 8.69846 69.1251 9.36996H69.8456C69.8456 8.97812 70.0226 8.65106 70.446 8.3714L70.0494 7.76784ZM69.1251 9.36996C69.1251 9.93244 69.34 10.408 69.7682 10.7604L70.2264 10.2042C70.102 10.1048 70.0028 9.97747 69.9369 9.8325C69.871 9.68754 69.8402 9.52905 69.8472 9.36996H69.1251ZM69.7682 10.7604C70.1711 11.0937 70.7857 11.3402 71.5647 11.5235L71.7305 10.822C70.9879 10.6482 70.5029 10.4317 70.2264 10.2042L69.7682 10.7604ZM71.5662 11.5251L73.7545 12.0275L73.9173 11.3228L71.7274 10.822L71.5662 11.5251ZM73.7545 12.0275C74.9869 12.3119 75.8607 12.7417 76.4168 13.2868L76.9224 12.7717C76.2351 12.0986 75.2192 11.6246 73.9173 11.3228L73.7545 12.0275ZM76.4168 13.2868C76.9604 13.8208 77.2416 14.516 77.2416 15.4056H77.9636C77.9636 14.347 77.6224 13.4574 76.9224 12.7717L76.4168 13.2868ZM77.2416 15.4056C77.2416 16.1561 77.0251 16.8165 76.5938 17.3964L77.1752 17.8277C77.6998 17.1167 77.9636 16.3062 77.9636 15.4056H77.2416ZM76.5954 17.3979C76.1688 17.9778 75.5605 18.4439 74.761 18.7883L75.0454 19.4519C75.9428 19.0648 76.6586 18.5261 77.1752 17.8261L76.5954 17.3979ZM74.761 18.7883C73.971 19.1296 73.0435 19.305 71.9691 19.305V20.0271C73.1225 20.0271 74.1495 19.8375 75.0454 19.4504L74.761 18.7868V18.7883ZM71.9691 19.305C70.4776 19.305 69.2958 18.9874 68.3967 18.3807L67.9907 18.9779C69.0414 19.6874 70.3781 20.0271 71.9691 20.0271V19.305ZM68.3967 18.3807C67.5056 17.7756 66.9605 16.9208 66.7551 15.7895L66.0441 15.9191C66.2827 17.2289 66.9321 18.2575 67.9907 18.9779L68.3967 18.3807ZM66.4549 16.2114L69.0461 15.8164L68.9387 15.1038L66.3475 15.4988L66.4549 16.2114ZM68.6417 15.543C68.8202 16.2935 69.1978 16.886 69.7824 17.2905L70.1932 16.6964C69.7745 16.4073 69.487 15.9775 69.3432 15.3755L68.6417 15.543ZM69.7856 17.2905C70.3639 17.6823 71.097 17.8656 71.9517 17.8656V17.1436C71.1933 17.1436 70.6167 16.984 70.1901 16.6948L69.7856 17.2905ZM71.9517 17.8656C72.8776 17.8656 73.6597 17.6744 74.2649 17.2542L73.8541 16.6617C73.4069 16.9713 72.7844 17.1436 71.9517 17.1436V17.8656ZM74.268 17.2526C74.8669 16.8307 75.2097 16.2777 75.2097 15.6031H74.4877C74.4877 15.9933 74.306 16.3441 73.8541 16.6617L74.268 17.2526ZM75.2097 15.6031C75.2097 15.069 75.0043 14.6108 74.6077 14.2506L74.1227 14.7846C74.2401 14.8857 74.3337 15.0115 74.3968 15.153C74.4599 15.2945 74.4909 15.4482 74.4877 15.6031H75.2097ZM74.6093 14.2537C74.227 13.8998 73.6708 13.6597 72.9819 13.5032L72.8239 14.2063C73.4496 14.3485 73.8683 14.5508 74.1195 14.783L74.6093 14.2537ZM72.9803 13.5017L70.6483 12.9913L70.4934 13.696L72.8239 14.2063L72.9803 13.5017ZM70.6514 12.9913C69.4032 12.7069 68.5279 12.2645 67.9796 11.6941L67.4582 12.1934C68.1424 12.9028 69.1694 13.3942 70.4934 13.696L70.6514 12.9913ZM67.9812 11.6957C67.4393 11.1301 67.1644 10.4112 67.1644 9.51374H66.4439C66.4439 10.5755 66.7757 11.4793 67.4582 12.1934L67.9812 11.6957ZM67.1644 9.51374C67.1644 8.77114 67.3698 8.13914 67.7742 7.59404L67.196 7.16428C66.6932 7.84317 66.4288 8.66911 66.4439 9.51374H67.1644ZM67.7742 7.59404C68.185 7.04262 68.7586 6.60338 69.5107 6.28422L69.2278 5.6222C68.3762 5.98402 67.6952 6.49594 67.196 7.16428L67.7742 7.59404ZM69.5107 6.28422C70.2596 5.96032 71.1286 5.79442 72.1224 5.79442V5.07078C71.048 5.07078 70.0795 5.2509 69.2262 5.62062L69.5107 6.28422ZM72.1224 5.79442C73.5634 5.79442 74.6488 6.10568 75.4198 6.69028L75.8559 6.11358C74.9174 5.40574 73.6597 5.07078 72.1224 5.07078V5.79442ZM75.4214 6.69028C76.2083 7.27804 76.7281 8.06488 76.9841 9.06502L77.684 8.88648C77.419 7.77583 76.7703 6.79373 75.8543 6.112L75.4214 6.69028Z" fill="white"/>
    </g>
  </g>
  <defs>
    <clipPath id="clip0_28_318">
      <rect width="79" height="26.86" fill="white" transform="translate(0.804688 0.267578)"/>
    </clipPath>
  </defs>
</svg>