<svg xmlns="http://www.w3.org/2000/svg" width="80" height="25" viewBox="0 0 80 25" fill="none">
  <g clip-path="url(#clip0_28_300)">
    <path d="M22.1282 12.3359C22.1282 14.662 21.7016 16.6616 20.8519 18.3364C20.0004 20.0042 18.833 21.2857 17.3513 22.1881C15.8766 23.0834 14.1983 23.5293 12.3181 23.5293C10.4309 23.5293 8.74558 23.0816 7.26214 22.1881C5.78747 21.2875 4.62529 19.9989 3.77385 18.3259C2.9224 16.6511 2.49756 14.655 2.49756 12.3359C2.49756 10.008 2.9224 8.01196 3.77385 6.34418C4.62529 4.67114 5.78747 3.38783 7.26389 2.4925C8.74558 1.5919 10.4309 1.14072 12.3181 1.14072C14.1966 1.14072 15.8749 1.5919 17.3513 2.4925C18.833 3.38783 20.0004 4.66938 20.8519 6.34418C21.7016 8.01196 22.1282 10.008 22.1282 12.3359ZM18.8716 12.3359C18.8716 10.5628 18.5855 9.06881 18.0114 7.85572C17.4426 6.63561 16.6631 5.71394 15.6695 5.08896C14.6682 4.45265 13.5026 4.12312 12.3164 4.14096C11.0629 4.14096 9.94111 4.45696 8.95625 5.08896C7.96963 5.71394 7.19016 6.63561 6.61434 7.85572C6.04729 9.06881 5.76289 10.5628 5.76289 12.3359C5.76289 14.109 6.04729 15.6047 6.61434 16.8249C7.1884 18.0379 7.96963 18.9614 8.95625 19.5916C9.94111 20.2166 11.0629 20.5291 12.3181 20.5291C13.5024 20.5471 14.6665 20.2215 15.6695 19.5916C16.6631 18.9596 17.4426 18.0379 18.0096 16.8249C18.5855 15.6047 18.8716 14.109 18.8716 12.3359ZM30.7286 23.5925C29.6929 23.5925 28.7554 23.4012 27.9198 23.0184C27.1105 22.6524 26.4205 22.0659 25.929 21.3261C25.4462 20.5888 25.2057 19.6847 25.2057 18.6138C25.2057 17.6903 25.383 16.9319 25.7376 16.3368C26.0922 15.7399 26.5715 15.2677 27.1736 14.9201C27.8061 14.5613 28.4874 14.2963 29.196 14.1336C29.9467 13.9554 30.7069 13.8206 31.473 13.7298L33.8553 13.4524C34.4662 13.3752 34.9086 13.2505 35.186 13.0803C35.4634 12.91 35.6003 12.6326 35.6003 12.2499V12.1761C35.6003 11.2457 35.3387 10.5259 34.8138 10.0168C34.2959 9.50594 33.5235 9.24963 32.4947 9.24963C31.4238 9.24963 30.5794 9.48663 29.9615 9.96238C29.3523 10.4311 28.9292 10.9525 28.6957 11.5266L25.706 10.8454C26.0606 9.85354 26.5785 9.05125 27.2597 8.44032C27.9431 7.82623 28.7526 7.36905 29.6314 7.10083C30.5436 6.81395 31.4946 6.67004 32.4508 6.67423C33.1039 6.67423 33.7956 6.75323 34.5259 6.90947C35.2632 7.0587 35.9532 7.33432 36.5904 7.7381C37.2365 8.14187 37.7649 8.72121 38.1757 9.47258C38.5883 10.2187 38.7937 11.186 38.7937 12.378V23.2309H35.6863V20.996H35.5582C35.3207 21.4499 35.0078 21.86 34.633 22.2091C34.1727 22.6374 33.6346 22.9735 33.0477 23.1993C32.4017 23.4626 31.6292 23.5925 30.7286 23.5925ZM31.4186 21.0399C32.2999 21.0399 33.0512 20.8644 33.6745 20.5168C34.2699 20.2043 34.7674 19.7335 35.1123 19.1562C35.4458 18.5874 35.6108 17.9818 35.6108 17.3357V15.2291C35.4985 15.3432 35.2773 15.4502 34.9525 15.5486C34.633 15.6416 34.2678 15.7241 33.8553 15.7943L32.6545 15.9752L31.6749 16.1016C31.0587 16.1806 30.4934 16.3122 29.9825 16.4948C29.5177 16.6543 29.1009 16.9292 28.7712 17.2936C28.4728 17.6342 28.3235 18.0889 28.3235 18.6559C28.3235 19.4424 28.6132 20.0393 29.196 20.443C29.7771 20.8398 30.5162 21.0399 31.4186 21.0399ZM55.2766 10.877L52.394 11.3879C52.2662 11.0057 52.0719 10.6491 51.8199 10.3346C51.5416 9.98354 51.1843 9.70324 50.7771 9.51647C50.3382 9.3023 49.787 9.19696 49.1269 9.19696C48.2263 9.19696 47.4749 9.39885 46.871 9.80263C46.2688 10.1994 45.9669 10.7155 45.9669 11.3458C45.9669 11.8917 46.1688 12.3324 46.5743 12.6659C46.9781 12.9995 47.6311 13.2716 48.5317 13.484L51.1282 14.0809C52.631 14.4285 53.7528 14.964 54.4901 15.6873C55.2274 16.4105 55.5961 17.3498 55.5961 18.5067C55.608 19.4491 55.3087 20.3691 54.7446 21.1242C54.1846 21.8826 53.4016 22.4795 52.394 22.9114C51.3933 23.345 50.2346 23.5609 48.9144 23.5609C47.0852 23.5609 45.5912 23.1712 44.4343 22.39C43.2791 21.6035 42.5699 20.4852 42.3065 19.0386L45.3823 18.5699C45.5736 19.3722 45.9669 19.9778 46.5638 20.3904C47.1589 20.7942 47.9348 20.996 48.8934 20.996C49.9362 20.996 50.7701 20.7801 51.3933 20.3465C52.0183 19.9076 52.3308 19.3722 52.3308 18.7402C52.3308 18.2311 52.1376 17.8009 51.7549 17.4533C51.3792 17.1057 50.8017 16.8424 50.0204 16.6651L47.2554 16.0594C45.7281 15.7118 44.601 15.1588 43.8707 14.4004C43.1474 13.6403 42.7858 12.68 42.7858 11.5161C42.7858 10.5505 43.0562 9.70783 43.5934 8.98454C44.1341 8.2595 44.8784 7.69596 45.8282 7.29218C46.7797 6.88138 47.8681 6.67423 49.0953 6.67423C50.8614 6.67423 52.2518 7.0587 53.2665 7.82412C54.2812 8.58252 54.9518 9.60074 55.2783 10.8788L55.2766 10.877ZM59.0949 23.2309V6.88665H62.276V23.2309H59.0949ZM60.7012 4.36567C60.1482 4.36567 59.6725 4.18134 59.2757 3.81267C59.0895 3.64268 58.941 3.43543 58.84 3.20437C58.739 2.97331 58.6877 2.7236 58.6894 2.47143C58.6894 1.94652 58.886 1.50061 59.2757 1.13194C59.4645 0.948628 59.6876 0.804344 59.9322 0.707344C60.1768 0.610345 60.4381 0.562535 60.7012 0.566651C61.2542 0.566651 61.7265 0.754496 62.1162 1.13194C62.513 1.50061 62.7131 1.94652 62.7131 2.47143C62.7131 2.98932 62.513 3.43698 62.1162 3.81267C61.9283 3.99329 61.7066 4.1351 61.4638 4.22999C61.221 4.32488 60.9619 4.37098 60.7012 4.36567ZM78.8028 10.8788L75.9184 11.3879C75.7907 11.0057 75.5963 10.6491 75.3443 10.3346C75.066 9.98354 74.7087 9.70324 74.3015 9.51647C73.8626 9.3023 73.3132 9.19696 72.6513 9.19696C71.7525 9.19696 71.0011 9.39885 70.3972 9.80263C69.795 10.1994 69.4931 10.7155 69.4931 11.3458C69.4931 11.8917 69.695 12.3324 70.0987 12.6659C70.5025 12.9995 71.1556 13.2716 72.0562 13.484L74.6544 14.0809C76.1572 14.4285 77.2772 14.964 78.0145 15.6873C78.7519 16.4105 79.1205 17.3498 79.1205 18.5067C79.1329 19.4489 78.8343 20.3689 78.2708 21.1242C77.7091 21.8826 76.9261 22.4795 75.9184 22.9114C74.9177 23.345 73.7591 23.5609 72.4406 23.5609C70.6096 23.5609 69.1174 23.1712 67.9605 22.39C66.8036 21.6035 66.0943 20.4852 65.8327 19.0386L68.9067 18.5699C69.0998 19.3722 69.4931 19.9778 70.0882 20.3904C70.6851 20.7942 71.461 20.996 72.4178 20.996C73.4606 20.996 74.2963 20.7801 74.9195 20.3465C75.5427 19.9076 75.8552 19.3722 75.8552 18.7402C75.859 18.4968 75.8096 18.2556 75.7104 18.0333C75.6113 17.811 75.4647 17.6131 75.2811 17.4533C74.9054 17.1057 74.3261 16.8424 73.5466 16.6651L70.7799 16.0594C69.2543 15.7118 68.1272 15.1588 67.3969 14.4004C66.6736 13.6403 66.3102 12.68 66.3102 11.5161C66.3102 10.5505 66.5806 9.70783 67.1196 8.98454C67.6585 8.2595 68.4029 7.69596 69.3544 7.29218C70.3041 6.88138 71.3943 6.67423 72.6197 6.67423C74.3876 6.67423 75.778 7.0587 76.7927 7.82412C77.8056 8.58252 78.478 9.60074 78.8028 10.8788Z" fill="white"/>
    <mask id="mask0_28_300" style="mask-type:luminance" maskUnits="userSpaceOnUse" x="0" y="-2" width="80" height="27">
      <path d="M0.805176 -1.34692H79.8052V24.9864H0.805176V-1.34692Z" fill="white"/>
      <path d="M22.1282 12.3359C22.1282 14.662 21.7016 16.6616 20.8519 18.3364C20.0004 20.0042 18.833 21.2857 17.3513 22.1881C15.8766 23.0834 14.1983 23.5293 12.3181 23.5293C10.4309 23.5293 8.74558 23.0816 7.26214 22.1881C5.78747 21.2875 4.62529 19.9989 3.77385 18.3259C2.9224 16.6511 2.49756 14.655 2.49756 12.3359C2.49756 10.008 2.9224 8.01196 3.77385 6.34418C4.62529 4.67114 5.78747 3.38783 7.26389 2.4925C8.74558 1.5919 10.4309 1.14072 12.3181 1.14072C14.1966 1.14072 15.8749 1.5919 17.3513 2.4925C18.833 3.38783 20.0004 4.66938 20.8519 6.34418C21.7016 8.01196 22.1282 10.008 22.1282 12.3359ZM18.8716 12.3359C18.8716 10.5628 18.5855 9.06881 18.0114 7.85572C17.4426 6.63561 16.6631 5.71394 15.6695 5.08896C14.6682 4.45265 13.5026 4.12312 12.3164 4.14096C11.0629 4.14096 9.94111 4.45696 8.95625 5.08896C7.96963 5.71394 7.19016 6.63561 6.61434 7.85572C6.04729 9.06881 5.76289 10.5628 5.76289 12.3359C5.76289 14.109 6.04729 15.6047 6.61434 16.8249C7.1884 18.0379 7.96963 18.9614 8.95625 19.5916C9.94111 20.2166 11.0629 20.5291 12.3181 20.5291C13.5024 20.5471 14.6665 20.2215 15.6695 19.5916C16.6631 18.9596 17.4426 18.0379 18.0096 16.8249C18.5855 15.6047 18.8716 14.109 18.8716 12.3359ZM30.7286 23.5925C29.6929 23.5925 28.7554 23.4012 27.9198 23.0184C27.1105 22.6524 26.4205 22.0659 25.929 21.3261C25.4462 20.5888 25.2057 19.6847 25.2057 18.6138C25.2057 17.6903 25.383 16.9319 25.7376 16.3368C26.0922 15.7399 26.5715 15.2677 27.1736 14.9201C27.8061 14.5613 28.4874 14.2963 29.196 14.1336C29.9467 13.9554 30.7069 13.8206 31.473 13.7298L33.8553 13.4524C34.4662 13.3752 34.9086 13.2505 35.186 13.0803C35.4634 12.91 35.6003 12.6326 35.6003 12.2499V12.1761C35.6003 11.2457 35.3387 10.5259 34.8138 10.0168C34.2959 9.50594 33.5235 9.24963 32.4947 9.24963C31.4238 9.24963 30.5794 9.48663 29.9615 9.96238C29.3523 10.4311 28.9292 10.9525 28.6957 11.5266L25.706 10.8454C26.0606 9.85354 26.5785 9.05125 27.2597 8.44032C27.9431 7.82623 28.7526 7.36905 29.6314 7.10083C30.5436 6.81395 31.4946 6.67004 32.4508 6.67423C33.1039 6.67423 33.7956 6.75323 34.5259 6.90947C35.2632 7.0587 35.9532 7.33432 36.5904 7.7381C37.2365 8.14187 37.7649 8.72121 38.1757 9.47258C38.5883 10.2187 38.7937 11.186 38.7937 12.378V23.2309H35.6863V20.996H35.5582C35.3207 21.4499 35.0078 21.86 34.633 22.2091C34.1727 22.6374 33.6346 22.9735 33.0477 23.1993C32.4017 23.4626 31.6292 23.5925 30.7286 23.5925ZM31.4186 21.0399C32.2999 21.0399 33.0512 20.8644 33.6745 20.5168C34.2699 20.2043 34.7674 19.7335 35.1123 19.1562C35.4458 18.5874 35.6108 17.9818 35.6108 17.3357V15.2291C35.4985 15.3432 35.2773 15.4502 34.9525 15.5486C34.633 15.6416 34.2678 15.7241 33.8553 15.7943L32.6545 15.9752L31.6749 16.1016C31.0587 16.1806 30.4934 16.3122 29.9825 16.4948C29.5177 16.6543 29.1009 16.9292 28.7712 17.2936C28.4728 17.6342 28.3235 18.0889 28.3235 18.6559C28.3235 19.4424 28.6132 20.0393 29.196 20.443C29.7771 20.8398 30.5162 21.0399 31.4186 21.0399ZM55.2766 10.877L52.394 11.3879C52.2662 11.0057 52.0719 10.6491 51.8199 10.3346C51.5416 9.98354 51.1843 9.70324 50.7771 9.51647C50.3382 9.3023 49.787 9.19696 49.1269 9.19696C48.2263 9.19696 47.4749 9.39885 46.871 9.80263C46.2688 10.1994 45.9669 10.7155 45.9669 11.3458C45.9669 11.8917 46.1688 12.3324 46.5743 12.6659C46.9781 12.9995 47.6311 13.2716 48.5317 13.484L51.1282 14.0809C52.631 14.4285 53.7528 14.964 54.4901 15.6873C55.2274 16.4105 55.5961 17.3498 55.5961 18.5067C55.608 19.4491 55.3087 20.3691 54.7446 21.1242C54.1846 21.8826 53.4016 22.4795 52.394 22.9114C51.3933 23.345 50.2346 23.5609 48.9144 23.5609C47.0852 23.5609 45.5912 23.1712 44.4343 22.39C43.2791 21.6035 42.5699 20.4852 42.3065 19.0386L45.3823 18.5699C45.5736 19.3722 45.9669 19.9778 46.5638 20.3904C47.1589 20.7942 47.9348 20.996 48.8934 20.996C49.9362 20.996 50.7701 20.7801 51.3933 20.3465C52.0183 19.9076 52.3308 19.3722 52.3308 18.7402C52.3308 18.2311 52.1376 17.8009 51.7549 17.4533C51.3792 17.1057 50.8017 16.8424 50.0204 16.6651L47.2554 16.0594C45.7281 15.7118 44.601 15.1588 43.8707 14.4004C43.1474 13.6403 42.7858 12.68 42.7858 11.5161C42.7858 10.5505 43.0562 9.70783 43.5934 8.98454C44.1341 8.2595 44.8784 7.69596 45.8282 7.29218C46.7797 6.88138 47.8681 6.67423 49.0953 6.67423C50.8614 6.67423 52.2518 7.0587 53.2665 7.82412C54.2812 8.58252 54.9518 9.60074 55.2783 10.8788L55.2766 10.877ZM59.0949 23.2309V6.88665H62.276V23.2309H59.0949ZM60.7012 4.36567C60.1482 4.36567 59.6725 4.18134 59.2757 3.81267C59.0895 3.64268 58.941 3.43543 58.84 3.20437C58.739 2.97331 58.6877 2.7236 58.6894 2.47143C58.6894 1.94652 58.886 1.50061 59.2757 1.13194C59.4645 0.948628 59.6876 0.804344 59.9322 0.707344C60.1768 0.610345 60.4381 0.562535 60.7012 0.566651C61.2542 0.566651 61.7265 0.754496 62.1162 1.13194C62.513 1.50061 62.7131 1.94652 62.7131 2.47143C62.7131 2.98932 62.513 3.43698 62.1162 3.81267C61.9283 3.99329 61.7066 4.1351 61.4638 4.22999C61.221 4.32488 60.9619 4.37098 60.7012 4.36567ZM78.8028 10.8788L75.9184 11.3879C75.7907 11.0057 75.5963 10.6491 75.3443 10.3346C75.066 9.98354 74.7087 9.70324 74.3015 9.51647C73.8626 9.3023 73.3132 9.19696 72.6513 9.19696C71.7525 9.19696 71.0011 9.39885 70.3972 9.80263C69.795 10.1994 69.4931 10.7155 69.4931 11.3458C69.4931 11.8917 69.695 12.3324 70.0987 12.6659C70.5025 12.9995 71.1556 13.2716 72.0562 13.484L74.6544 14.0809C76.1572 14.4285 77.2772 14.964 78.0145 15.6873C78.7519 16.4105 79.1205 17.3498 79.1205 18.5067C79.1329 19.4489 78.8343 20.3689 78.2708 21.1242C77.7091 21.8826 76.9261 22.4795 75.9184 22.9114C74.9177 23.345 73.7591 23.5609 72.4406 23.5609C70.6096 23.5609 69.1174 23.1712 67.9605 22.39C66.8036 21.6035 66.0943 20.4852 65.8327 19.0386L68.9067 18.5699C69.0998 19.3722 69.4931 19.9778 70.0882 20.3904C70.6851 20.7942 71.461 20.996 72.4178 20.996C73.4606 20.996 74.2963 20.7801 74.9195 20.3465C75.5427 19.9076 75.8552 19.3722 75.8552 18.7402C75.859 18.4968 75.8096 18.2556 75.7104 18.0333C75.6113 17.811 75.4647 17.6131 75.2811 17.4533C74.9054 17.1057 74.3261 16.8424 73.5466 16.6651L70.7799 16.0594C69.2543 15.7118 68.1272 15.1588 67.3969 14.4004C66.6736 13.6403 66.3102 12.68 66.3102 11.5161C66.3102 10.5505 66.5806 9.70783 67.1196 8.98454C67.6585 8.2595 68.4029 7.69596 69.3544 7.29218C70.3041 6.88138 71.3943 6.67423 72.6197 6.67423C74.3876 6.67423 75.778 7.0587 76.7927 7.82412C77.8056 8.58252 78.478 9.60074 78.8028 10.8788Z" fill="black"/>
    </mask>
    <g mask="url(#mask0_28_300)">
      <path d="M18.0094 7.85573L17.5916 8.04885L17.5934 8.05236L18.0094 7.85573ZM15.6693 5.08898L15.42 5.47696L15.4235 5.48047L15.6693 5.08898ZM8.95604 5.08898L9.20182 5.47871H9.20358L8.95604 5.08898ZM6.61413 16.8266L6.19631 17.0197V17.0232L6.61413 16.8249V16.8266ZM8.95604 19.5916L8.70676 19.9796L8.70851 19.9814L8.95604 19.5916ZM21.6663 12.3359C21.6663 14.6058 21.252 16.5317 20.4409 18.1275L21.2625 18.5453C22.1526 16.7933 22.5879 14.7182 22.5879 12.3359H21.6663ZM20.4409 18.1275C19.6246 19.725 18.515 20.9416 17.1106 21.7948L17.5899 22.5831C19.1523 21.6351 20.3742 20.2833 21.2607 18.5471L20.4409 18.1275ZM17.1124 21.7913C15.7149 22.6393 14.1209 23.0659 12.3179 23.0659V23.9875C14.2736 23.9875 16.0362 23.5241 17.5899 22.5831L17.1124 21.7913ZM12.3179 23.0659C10.5062 23.0659 8.90513 22.6375 7.50069 21.7913L7.02669 22.5813C8.58562 23.5223 10.3552 23.9875 12.3179 23.9875V23.0659ZM7.5042 21.7931C6.10678 20.9416 5.00078 19.718 4.18444 18.1152L3.36284 18.5348C4.2494 20.278 5.46951 21.6316 7.02318 22.5813L7.5042 21.7948V21.7931ZM4.18444 18.1152C3.37338 16.5176 2.95731 14.5971 2.95731 12.3342H2.03564C2.03564 14.7094 2.47102 16.7827 3.36284 18.5348L4.18444 18.1152ZM2.95731 12.3342C2.95731 10.0625 3.37338 8.14365 4.18444 6.55487L3.36284 6.13353C2.47278 7.88031 2.03564 9.95187 2.03564 12.3342H2.95731ZM4.18444 6.55487C5.00078 4.95205 6.10678 3.73369 7.50244 2.88751L7.02493 2.09751C5.46951 3.042 4.2494 4.39202 3.36284 6.13529L4.18444 6.55487ZM7.50244 2.88751C8.90689 2.03431 10.508 1.60245 12.3179 1.60245V0.680779C10.3535 0.680779 8.58562 1.15127 7.02493 2.09927L7.50244 2.88751ZM12.3179 1.60245C14.1209 1.60245 15.7132 2.03431 17.1106 2.88751L17.5881 2.09927C16.0362 1.15127 14.2736 0.680779 12.3179 0.680779V1.60245ZM17.1106 2.88751C18.5133 3.73369 19.6246 4.95205 20.4409 6.55487L21.2625 6.13529C20.3759 4.39378 19.1506 3.042 17.5881 2.09751L17.1106 2.88751ZM20.4409 6.55487C21.252 8.14365 21.6663 10.0642 21.6663 12.3359H22.5897C22.5897 9.95362 22.1543 7.88031 21.2625 6.13529L20.4409 6.55487ZM19.3331 12.3359C19.3331 10.5154 19.0382 8.94945 18.4273 7.65911L17.5934 8.05236C18.1306 9.1882 18.4115 10.6102 18.4115 12.3359H19.3331ZM18.429 7.66087C17.8286 6.37229 16.993 5.37865 15.9151 4.69925L15.4235 5.48047C16.3311 6.04927 17.0562 6.8972 17.5916 8.04885L18.429 7.66087ZM15.9186 4.701C14.8431 4.01822 13.5917 3.66433 12.3179 3.68278V4.60269C13.4836 4.60269 14.5124 4.89762 15.42 5.47696L15.9186 4.701ZM12.3179 3.68278C10.9802 3.68278 9.77238 4.01809 8.70676 4.701L9.20358 5.47871C10.1094 4.89938 11.1435 4.60269 12.3179 4.60269V3.68278ZM8.70676 4.701C7.63587 5.37865 6.80373 6.37229 6.19807 7.65911L7.03196 8.05236C7.57618 6.89896 8.30122 6.04927 9.20182 5.47871L8.71027 4.69925L8.70676 4.701ZM6.19807 7.65911C5.5924 8.94945 5.30273 10.5136 5.30273 12.3342H6.2244C6.2244 10.6067 6.50002 9.18645 7.03196 8.05236L6.19807 7.65911ZM5.30273 12.3342C5.30273 14.1529 5.5924 15.7224 6.19807 17.018L7.03196 16.63C6.50002 15.4871 6.2244 14.0599 6.2244 12.3342H5.30273ZM6.19807 17.0215C6.80373 18.3013 7.63762 19.2949 8.70676 19.9796L9.20358 19.2019C8.30122 18.6226 7.57442 17.7729 7.03196 16.6265L6.19807 17.0215ZM8.70676 19.9796C9.77238 20.6537 10.982 20.9873 12.3179 20.9873V20.0656C11.1417 20.0656 10.1077 19.7742 9.20182 19.2001L8.71027 19.9796H8.70676ZM12.3179 20.9873C13.6469 20.9873 14.8512 20.6537 15.9168 19.9796L15.4235 19.2001C14.4933 19.7833 13.4139 20.0839 12.3162 20.0656V20.9873H12.3179ZM15.9168 19.9796C16.993 19.2949 17.8286 18.2995 18.4273 17.0197L17.5934 16.6282C17.0562 17.7729 16.3311 18.6226 15.4218 19.2019L15.9168 19.9796ZM18.4273 17.0197C19.0382 15.7224 19.3331 14.1547 19.3331 12.3324H18.4115C18.4115 14.0599 18.1306 15.4854 17.5934 16.6282L18.4273 17.0197ZM27.9178 23.0167L27.7247 23.4345H27.7264L27.9178 23.0167ZM25.9288 21.3244L25.5425 21.5772L25.5443 21.5789L25.9305 21.3244H25.9288ZM31.4728 13.7281L31.4201 13.2699L31.471 13.7263L31.4728 13.7281ZM33.8551 13.4507L33.9078 13.9071H33.9148L33.8551 13.4507ZM34.8136 10.0133L34.4906 10.3416V10.3451L34.8136 10.0133ZM28.6955 11.5248L28.5937 11.9743L28.9746 12.062L29.1221 11.6986L28.6955 11.5248ZM25.7058 10.8437L25.2722 10.6892L25.0966 11.179L25.604 11.2931L25.7058 10.8437ZM29.6312 7.09909L29.7682 7.53798H29.7717L29.6312 7.09909ZM34.5257 6.90598L34.4309 7.35716L34.4344 7.35891L34.5257 6.90598ZM38.7952 23.2309V23.6926H39.2552V23.2309H38.7952ZM35.6879 23.2309H35.2262V23.6926H35.6879V23.2309ZM35.6879 20.9961H36.1478V20.5361H35.6879V20.9961ZM35.5597 20.9961V20.5361H35.2753L35.1472 20.7907L35.5597 20.9961ZM35.6124 15.2291H36.0741V14.116L35.2876 14.9043L35.6124 15.2291ZM34.9541 15.5486L35.0822 15.991H35.0875L34.9541 15.5486ZM33.8568 15.7944L33.9271 16.249H33.9358L33.8586 15.7926L33.8568 15.7944ZM32.656 15.9752L32.714 16.4316H32.721L32.656 15.9752ZM31.6764 16.1016L31.7344 16.558H31.7379L31.6764 16.1016ZM29.1976 20.4431L28.9343 20.8223H28.9378L29.1976 20.4431ZM30.7302 23.1308C29.8294 23.1454 28.9363 22.9639 28.1127 22.5989L27.7282 23.4363C28.6722 23.8574 29.6966 24.0683 30.7302 24.0542V23.1326V23.1308ZM28.1144 22.6006C27.3828 22.2703 26.7591 21.7403 26.315 21.0716L25.546 21.5807C26.085 22.3935 26.8153 23.0097 27.7264 23.4345L28.1162 22.6006H28.1144ZM26.3167 21.0733C25.8936 20.4255 25.6672 19.6144 25.6672 18.6138H24.7455C24.7455 19.7549 25.0036 20.752 25.5443 21.5789L26.3167 21.0733ZM25.6672 18.6138C25.6672 17.7465 25.8357 17.0759 26.1359 16.5721L25.3424 16.0998C24.9334 16.788 24.7455 17.6342 24.7455 18.6138H25.6689H25.6672ZM26.1359 16.5721C26.4502 16.0454 26.8715 15.6293 27.4052 15.3204L26.9452 14.5216C26.2827 14.9 25.7303 15.4445 25.3424 16.1016L26.1359 16.5721ZM27.4052 15.3204C27.967 14.9973 28.599 14.7498 29.3047 14.583L29.0905 13.6859C28.3387 13.8591 27.6161 14.1406 26.9452 14.5216L27.4052 15.3204ZM29.3047 14.583C30.0379 14.4082 30.7805 14.2757 31.529 14.1863L31.4201 13.2699C30.6301 13.3647 29.8524 13.5034 29.0905 13.6859L29.3047 14.5813V14.583ZM31.529 14.1863L33.9113 13.9106L33.8059 12.9942L31.4219 13.2716L31.529 14.1863ZM33.9148 13.9106C34.5433 13.8299 35.0647 13.6965 35.4281 13.4718L34.9453 12.687C34.7557 12.8046 34.3923 12.9188 33.7989 12.996L33.9165 13.9089L33.9148 13.9106ZM35.4281 13.4718C35.867 13.2032 36.0636 12.759 36.0636 12.2499H35.1419C35.1419 12.5062 35.0594 12.6186 34.947 12.6888L35.4298 13.4735L35.4281 13.4718ZM36.0636 12.2499V12.1762H35.1419V12.2499H36.0636ZM36.0636 12.1762C36.0636 11.1579 35.7739 10.3047 35.1366 9.68502L34.4941 10.3469C34.9067 10.7489 35.1419 11.3352 35.1419 12.1762H36.0636ZM35.1384 9.68678C34.5046 9.0618 33.5935 8.78793 32.4963 8.78793V9.71311C33.4531 9.71311 34.0886 9.95011 34.4906 10.3451L35.1384 9.68678ZM32.4963 8.78793C31.3604 8.78793 30.4054 9.04074 29.6821 9.59725L30.2439 10.3276C30.7548 9.93431 31.4904 9.71136 32.4963 9.71136V8.78793ZM29.6821 9.59549C29.0238 10.1046 28.541 10.6857 28.2707 11.3528L29.1239 11.7004C29.3205 11.2176 29.6839 10.7577 30.2439 10.3276L29.6821 9.59725V9.59549ZM28.7991 11.0772L25.8094 10.396L25.6057 11.2949L28.5954 11.976L28.7991 11.0772ZM26.1412 11.0017C26.4747 10.0695 26.9522 9.33567 27.5684 8.78442L26.954 8.098C26.2061 8.76511 25.6496 9.63587 25.2739 10.691L26.1412 11.0017ZM27.5684 8.78442C28.2075 8.21211 28.9378 7.7978 29.7699 7.54149L29.4978 6.6602C28.5546 6.94812 27.6858 7.43886 26.9522 8.098L27.5684 8.78442ZM29.7734 7.53973C30.6196 7.27113 31.5114 7.13596 32.4524 7.13596V6.21429C31.4219 6.21429 30.4353 6.36176 29.4943 6.66196L29.7734 7.53973ZM32.4524 7.13596C33.0686 7.13596 33.7304 7.20969 34.4344 7.35891L34.6258 6.45831C33.912 6.3003 33.1835 6.21967 32.4524 6.21429V7.13596ZM34.4362 7.36067C35.1191 7.49936 35.7528 7.75391 36.3462 8.12785L36.8378 7.35013C36.1594 6.91826 35.4071 6.61533 34.6188 6.45656L34.4362 7.36067ZM36.348 8.1296C36.9185 8.48773 37.3943 9.00211 37.7735 9.6938L38.581 9.2514C38.1741 8.47659 37.5728 7.82082 36.836 7.34838L36.348 8.1296ZM37.7735 9.6938C38.1351 10.3486 38.3353 11.2352 38.3353 12.378H39.2552C39.2552 11.1386 39.0428 10.0853 38.581 9.24965L37.7735 9.6938ZM38.3353 12.378V23.2309H39.2552V12.378H38.3353ZM38.7952 22.7709H35.6879V23.6926H38.7952V22.7709ZM36.1443 23.2309V20.9961H35.2227V23.2309H36.1443ZM35.6844 20.5361H35.5562V21.4578H35.6844V20.5361ZM35.1437 20.7907C34.9297 21.1979 34.6484 21.5659 34.3115 21.8791L34.9506 22.541C35.3912 22.1161 35.7353 21.6702 35.9688 21.2032L35.1437 20.7907ZM34.3115 21.8791C33.8925 22.2653 33.404 22.5686 32.872 22.7727L33.2196 23.6259C33.8605 23.3779 34.448 23.0096 34.9506 22.541L34.3115 21.8791ZM32.872 22.7727C32.2944 23.0062 31.5834 23.1308 30.7267 23.1308V24.0542C31.6694 24.0542 32.5051 23.9156 33.2196 23.6259L32.872 22.7727ZM31.4184 21.4999C32.3576 21.4999 33.1915 21.3138 33.8972 20.9206L33.4496 20.1148C32.9071 20.4167 32.2382 20.5782 31.4184 20.5782V21.4999ZM33.8972 20.9206C34.5942 20.5379 35.1349 20.0288 35.5088 19.388L34.7118 18.9245C34.4309 19.4038 34.0166 19.8023 33.4513 20.1148L33.8955 20.9223L33.8972 20.9206ZM35.5071 19.3897C35.881 18.7525 36.0706 18.066 36.0706 17.3357H35.1489C35.1489 17.8975 35.005 18.4242 34.7118 18.9228L35.5071 19.3897ZM36.0706 17.3357V15.2291H35.1489V17.3357H36.0706ZM35.2841 14.9043C35.256 14.9306 35.1331 15.0096 34.8154 15.1079L35.084 15.9892C35.4175 15.8874 35.7353 15.7557 35.9354 15.5556L35.2841 14.9043ZM34.8224 15.1062C34.4781 15.203 34.1289 15.281 33.7761 15.3397L33.9341 16.2473C34.3554 16.1753 34.7399 16.0893 35.0787 15.991L34.8224 15.1062ZM33.7831 15.3379L32.5858 15.5187L32.7175 16.4316L33.9253 16.249L33.7831 15.3379ZM32.5928 15.517L31.6097 15.6451L31.7344 16.558L32.7105 16.4316L32.5928 15.517ZM31.615 15.6451C31.0045 15.718 30.404 15.8582 29.8243 16.063L30.1368 16.9284C30.6108 16.7582 31.1428 16.6335 31.7309 16.5598L31.615 15.6451ZM29.8226 16.063C29.2573 16.2701 28.7868 16.5756 28.4216 16.9899L29.1151 17.5973C29.3609 17.3164 29.6962 17.09 30.1403 16.9284L29.8226 16.063ZM28.4216 16.9899C28.0319 17.434 27.8599 18.0064 27.8599 18.6559H28.7815C28.7815 18.1696 28.9079 17.8343 29.1151 17.5973L28.4216 16.9899ZM27.8599 18.6559C27.8599 19.5741 28.211 20.3202 28.9308 20.8223L29.4574 20.0656C29.015 19.7566 28.7815 19.3107 28.7815 18.6559H27.8599ZM28.9343 20.8223C29.6102 21.284 30.4493 21.4999 31.4184 21.4999V20.5782C30.5827 20.5782 29.9402 20.3939 29.4522 20.0621L28.9343 20.8223ZM55.2764 10.877L55.3554 11.3317L55.8452 11.244L55.7223 10.7629L55.2764 10.877ZM52.392 11.3879L51.9531 11.5319L52.0778 11.9128L52.4728 11.8426L52.392 11.3879ZM51.8179 10.3346L51.451 10.6155L51.4545 10.6207L51.8179 10.3346ZM46.869 9.80265L47.1236 10.1889L47.1271 10.1854L46.869 9.80265ZM42.3046 19.0386L42.2344 18.5822L41.7674 18.6542L41.8516 19.1211L42.3046 19.0386ZM45.3803 18.5699L45.828 18.4646L45.7297 18.0502L45.3101 18.1152L45.3803 18.5699ZM46.5618 20.3904L46.2985 20.7696L46.302 20.7714L46.5618 20.3904ZM51.3913 20.3483L51.6547 20.7257H51.6582L51.3913 20.3483ZM51.753 17.4534L51.4405 17.7922L51.444 17.7939L51.753 17.4534ZM50.0185 16.6651L50.1221 16.2157H50.1186L50.0185 16.6651ZM47.2535 16.0594L47.1499 16.5089H47.1534L47.2535 16.0594ZM43.8688 14.4004L43.5352 14.7164L43.537 14.72L43.8688 14.4004ZM45.8262 7.2922L46.007 7.71529H46.0106L45.8262 7.2922ZM55.1956 10.4224L52.3112 10.935L52.4728 11.8426L55.3554 11.3317L55.1956 10.4224ZM52.8291 11.2457C52.6848 10.812 52.4649 10.4073 52.1796 10.0502L51.4545 10.6207C51.688 10.9157 51.8513 11.2176 51.9531 11.5319L52.8291 11.2457ZM52.1831 10.0554C51.8614 9.64633 51.4475 9.31908 50.9753 9.10042L50.5732 9.9308C50.9595 10.1169 51.2456 10.3486 51.451 10.6155L52.1831 10.0554ZM50.9753 9.10042C50.4556 8.84938 49.8306 8.73527 49.1249 8.73527V9.65693C49.7394 9.65693 50.2134 9.757 50.5732 9.9308L50.977 9.10042H50.9753ZM49.1249 8.73527C48.1558 8.73527 47.3079 8.95471 46.6145 9.41993L47.1271 10.1854C47.6362 9.84302 48.2945 9.65693 49.1249 9.65693V8.73527ZM46.6145 9.41993C45.9052 9.88867 45.505 10.5347 45.505 11.3458H46.4266C46.4266 10.8946 46.6285 10.5154 47.1236 10.1889L46.6145 9.41993ZM45.505 11.3458C45.505 12.0234 45.763 12.5957 46.2774 13.0206L46.8655 12.3096C46.7216 12.1949 46.6068 12.0478 46.5305 11.8803C46.4542 11.7128 46.4186 11.5297 46.4266 11.3458H45.505ZM46.2774 13.0206C46.7637 13.4208 47.4993 13.714 48.4244 13.9335L48.6351 13.0364C47.7573 12.8292 47.1885 12.5764 46.8655 12.3096L46.2774 13.0206ZM48.4244 13.9335L51.0227 14.5304L51.2298 13.6315L48.6334 13.0346L48.4244 13.9335ZM51.0227 14.5304C52.4798 14.8674 53.5103 15.373 54.1651 16.0156L54.8112 15.3572C53.9896 14.5532 52.7782 13.9879 51.2298 13.6315L51.0227 14.5304ZM54.1651 16.0156C54.8041 16.6423 55.1342 17.4586 55.1342 18.5067H56.0558C56.0558 17.2427 55.6486 16.1788 54.8094 15.3572L54.1651 16.0156ZM55.1342 18.5067C55.1342 19.3897 54.8814 20.1657 54.374 20.8504L55.1131 21.3981C55.7362 20.5639 56.0674 19.5478 56.0558 18.5067H55.1342ZM54.374 20.8504C53.8702 21.535 53.1539 22.0828 52.2094 22.4883L52.5746 23.3345C53.6455 22.8763 54.4987 22.232 55.1149 21.3981L54.374 20.8504ZM52.2094 22.4883C51.279 22.8921 50.1818 23.0992 48.9125 23.0992V24.0209C50.2818 24.0209 51.5054 23.7979 52.5746 23.3362L52.2094 22.4883ZM48.9125 23.0992C47.1464 23.0992 45.7507 22.7235 44.6904 22.0073L44.176 22.7727C45.4277 23.6171 47.02 24.0209 48.9125 24.0209V23.0992ZM44.6939 22.0108C43.6458 21.2963 43.0015 20.2903 42.761 18.9561L41.8516 19.1211C42.1343 20.6836 42.912 21.9107 44.176 22.7727L44.6939 22.009V22.0108ZM42.3766 19.4951L45.4505 19.0263L45.3118 18.1134L42.2379 18.5822L42.3766 19.4951ZM44.9344 18.677C45.1468 19.5723 45.598 20.2851 46.3002 20.7696L46.8251 20.0112C46.3353 19.6724 46 19.1703 45.8297 18.4628L44.9344 18.677ZM46.302 20.7714C46.9954 21.2418 47.8732 21.456 48.8932 21.456V20.5361C47.9978 20.5361 47.3202 20.3465 46.8216 20.0094L46.302 20.7714ZM48.8932 21.456C49.9957 21.456 50.9314 21.2278 51.6582 20.7257L51.1298 19.9691C50.6084 20.3307 49.8763 20.5361 48.8932 20.5361V21.456ZM51.6599 20.724C52.3762 20.2184 52.7905 19.5548 52.7905 18.7402H51.8688C51.8688 19.1896 51.6599 19.5969 51.1298 19.9691L51.6599 20.724ZM52.7905 18.7402C52.7905 18.0976 52.543 17.5464 52.0655 17.1128L51.4458 17.7939C51.5821 17.9107 51.6908 18.0564 51.764 18.2203C51.8372 18.3843 51.873 18.5607 51.8688 18.7402H52.7905ZM52.069 17.1145C51.609 16.6897 50.9419 16.4018 50.1238 16.2157L49.9184 17.1163C50.661 17.2848 51.1491 17.5201 51.4405 17.7922L52.069 17.1145ZM50.1221 16.2157L47.3536 15.61L47.1552 16.5089L49.9219 17.1163L50.1221 16.2157ZM47.3571 15.61C45.8789 15.273 44.8466 14.7498 44.2023 14.0792L43.537 14.72C44.3533 15.5679 45.5804 16.1507 47.1534 16.5089L47.3571 15.61ZM44.2041 14.0827C43.5721 13.4173 43.2473 12.5747 43.2473 11.5161H42.3256C42.3256 12.7836 42.7224 13.8632 43.537 14.7182L44.2041 14.0827ZM43.2473 11.5161C43.2473 10.6436 43.4878 9.89745 43.9636 9.25842L43.2245 8.70893C42.6226 9.51966 42.3089 10.5065 42.3256 11.5161H43.2473ZM43.9636 9.25842C44.4481 8.60887 45.124 8.09274 46.0106 7.71529L45.6489 6.86736C44.6342 7.29922 43.8179 7.91016 43.2245 8.70893L43.9636 9.25842ZM46.0123 7.71353C46.8954 7.33258 47.9188 7.1342 49.0951 7.1342V6.21429C47.817 6.21429 46.6636 6.42847 45.6454 6.86911L46.0106 7.71529L46.0123 7.71353ZM49.0951 7.1342C50.798 7.1342 52.0795 7.50638 52.9889 8.19105L53.5436 7.45547C52.4236 6.60929 50.9244 6.21429 49.0951 6.21429V7.1342ZM52.9906 8.1928C53.9158 8.88625 54.5285 9.81318 54.8305 10.9912L55.724 10.7629C55.3729 9.39009 54.6461 8.27882 53.5436 7.45547L52.9906 8.1928ZM59.0947 23.2309H58.633V23.6926H59.0947V23.2309ZM59.0947 6.88667V6.42671H58.633V6.88842L59.0947 6.88667ZM62.2758 6.88667H62.7375V6.42671H62.2758V6.88667ZM62.2758 23.2309V23.6926H62.7375V23.2309H62.2758ZM59.2738 3.81269L58.956 4.14625L58.9613 4.14976L59.2738 3.81269ZM62.1178 1.13196L61.7948 1.462L61.8 1.46727L62.116 1.1302L62.1178 1.13196ZM59.5529 23.2309V6.88667H58.6312L58.633 23.2309H59.5529ZM59.093 7.34838H62.274L62.2758 6.42671H59.0947L59.093 7.34838ZM61.8141 6.88842V23.2309H62.7375V6.88667H61.8123L61.8141 6.88842ZM62.274 22.7692H59.093L59.0947 23.6926H62.2758L62.274 22.7692ZM60.6993 3.90573C60.286 3.91526 59.8858 3.7606 59.5863 3.47562L58.9613 4.14976C59.4458 4.60093 60.0322 4.8274 60.6993 4.8274V3.90573ZM59.5933 3.48089C59.4518 3.3538 59.3391 3.19805 59.2625 3.024C59.1859 2.84995 59.1473 2.66159 59.1491 2.47145H58.2275C58.2275 3.121 58.4785 3.68629 58.9543 4.14449L59.5933 3.48089ZM59.1491 2.47145C59.1459 2.28194 59.1835 2.09395 59.2596 1.92034C59.3356 1.74673 59.45 1.59159 59.5915 1.46551L58.9578 0.796646C58.7251 1.00875 58.5398 1.26754 58.414 1.55614C58.2881 1.84473 58.2246 2.15662 58.2275 2.47145H59.1491ZM59.5915 1.46551C59.7382 1.32261 59.91 1.21035 60.1005 1.1353C60.291 1.06025 60.4946 1.0239 60.6993 1.02838V0.106712C60.0287 0.106712 59.4423 0.338446 58.9578 0.796646L59.5915 1.46551ZM60.6993 1.02838C61.1364 1.02838 61.4928 1.17058 61.7948 1.462L62.4338 0.800157C62.2048 0.575696 61.9337 0.398842 61.6359 0.279816C61.3382 0.160791 61.0199 0.101956 60.6993 0.106712V1.02838ZM61.8 1.46727C61.9434 1.59154 62.0579 1.74739 62.1356 1.92054C62.2132 2.09369 62.2521 2.28171 62.2494 2.47145H63.1711C63.1735 2.15502 63.1085 1.84171 62.9805 1.55234C62.8525 1.26297 62.6643 1.00416 62.4285 0.793135L61.8 1.46727ZM62.2494 2.47145C62.2494 2.85591 62.109 3.1842 61.7983 3.47738L62.4303 4.148C62.9148 3.69156 63.1711 3.12451 63.1711 2.47145H62.2494ZM61.7983 3.47738C61.6527 3.61815 61.4805 3.72852 61.2919 3.80206C61.1032 3.87561 60.9017 3.91085 60.6993 3.90573V4.8274C61.3664 4.8274 61.9528 4.59918 62.4303 4.148L61.7983 3.47738ZM78.8008 10.877L78.8816 11.3317L79.3696 11.244L79.2467 10.7629L78.8008 10.877ZM75.9164 11.3879L75.4776 11.5319L75.604 11.9128L75.9972 11.8426L75.9164 11.3879ZM75.3424 10.3346L74.9772 10.6155L74.9807 10.6207L75.3424 10.3346ZM70.3952 9.80265L70.648 10.1889L70.6515 10.1854L70.3952 9.80265ZM72.0542 13.484L71.9489 13.9335H71.9524L72.0542 13.484ZM65.8308 19.0386L65.7606 18.5822L65.2918 18.6542L65.3761 19.1211L65.8308 19.0386ZM68.9048 18.5699L69.3542 18.4646L69.2559 18.0502L68.8345 18.1152L68.9048 18.5699ZM70.0862 20.3904L69.8229 20.7696L69.8282 20.7714L70.0862 20.3904ZM75.2792 17.4534L74.9667 17.7922L74.9684 17.7939L75.2792 17.4534ZM73.5447 16.6651L73.6465 16.2157H73.643L73.5447 16.6651ZM70.7779 16.0594L70.6761 16.5089H70.6796L70.7779 16.0594ZM67.395 14.4004L67.0614 14.7164V14.72L67.395 14.4004ZM69.3524 7.2922L69.5332 7.71529H69.535L69.3524 7.2922ZM78.7201 10.4224L75.8374 10.935L75.9972 11.8426L78.8816 11.3317L78.7201 10.4224ZM76.3553 11.2457C76.2109 10.8121 75.991 10.4073 75.7058 10.0502L74.9807 10.6207C75.2125 10.9157 75.3757 11.2176 75.4776 11.5319L76.3553 11.2457ZM75.7093 10.0554C75.3876 9.64638 74.9737 9.31914 74.5015 9.10042L74.0977 9.9308C74.4839 10.1169 74.7736 10.3486 74.9772 10.6155L75.7093 10.0554ZM74.5015 9.10042C73.9801 8.84938 73.3568 8.73527 72.6511 8.73527V9.65693C73.2655 9.65693 73.7378 9.757 74.0977 9.9308L74.5015 9.10042ZM72.6511 8.73527C71.6803 8.73527 70.8341 8.95471 70.1389 9.41993L70.6515 10.1854C71.1606 9.84302 71.819 9.65693 72.6511 9.65693V8.73527ZM70.1407 9.41818C69.4314 9.88691 69.0294 10.5347 69.0294 11.3458H69.9511C69.9511 10.8946 70.153 10.5154 70.648 10.1889L70.1407 9.41818ZM69.0294 11.3458C69.0294 12.0234 69.2892 12.5957 69.8036 13.0206L70.39 12.3096C70.2459 12.195 70.131 12.0479 70.0547 11.8804C69.9785 11.7129 69.9429 11.5297 69.9511 11.3458H69.0294ZM69.8036 13.0206C70.2899 13.4208 71.0237 13.714 71.9489 13.9335L72.1596 13.0364C71.2835 12.8292 70.713 12.5764 70.39 12.3096L69.8036 13.0206ZM71.9524 13.9335L74.5489 14.5304L74.7543 13.6315L72.1578 13.0346L71.9524 13.9335ZM74.5489 14.5304C76.0077 14.8674 77.0365 15.373 77.6896 16.0156L78.3356 15.3572C77.5157 14.5532 76.3027 13.9879 74.7543 13.6315L74.5489 14.5304ZM77.6896 16.0156C78.3286 16.6423 78.6586 17.4586 78.6586 18.5067H79.5803C79.5803 17.2427 79.173 16.1788 78.3356 15.3572L77.6913 16.0156H77.6896ZM78.6586 18.5067C78.6586 19.3897 78.4058 20.1657 77.8985 20.8504L78.6393 21.3981C79.2617 20.5637 79.5924 19.5476 79.5803 18.5067H78.6586ZM77.8985 20.8504C77.3929 21.535 76.6801 22.0828 75.7356 22.4883L76.099 23.3345C77.1699 22.8763 78.0231 22.232 78.6393 21.3981L77.8985 20.8504ZM75.7356 22.4883C74.8052 22.8921 73.708 23.0992 72.4387 23.0992V24.0209C73.808 24.0209 75.0316 23.7979 76.1008 23.3362L75.7356 22.4883ZM72.4387 23.0992C70.6708 23.0992 69.2752 22.7235 68.2166 22.0073L67.7004 22.7727C68.9539 23.6171 70.5444 24.0209 72.4387 24.0209V23.0992ZM68.2183 22.0108C67.1703 21.2963 66.526 20.2903 66.2837 18.9561L65.3761 19.1211C65.6605 20.6836 66.4364 21.9107 67.7004 22.7727L68.2183 22.009V22.0108ZM65.901 19.4951L68.9732 19.0263L68.8363 18.1134L65.7606 18.5822L65.901 19.4951ZM68.4571 18.677C68.6713 19.5723 69.1207 20.2851 69.8229 20.7696L70.3478 20.0112C69.8598 19.6724 69.5227 19.172 69.3542 18.4646L68.4571 18.677ZM69.8282 20.7714C70.5234 21.2418 71.3976 21.456 72.4159 21.456V20.5361C71.5205 20.5361 70.8429 20.3465 70.3443 20.0094L69.8282 20.7714ZM72.4159 21.456C73.5184 21.456 74.4558 21.2278 75.1809 20.7257L74.6542 19.9691C74.131 20.3307 73.399 20.5361 72.4159 20.5361V21.456ZM75.1826 20.724C75.9006 20.2184 76.315 19.5548 76.315 18.7402H75.3915C75.3915 19.1896 75.1809 19.5969 74.6507 19.9691L75.1826 20.724ZM76.315 18.7402C76.315 18.0976 76.0657 17.5464 75.5882 17.1128L74.9684 17.7939C75.1048 17.9107 75.2135 18.0564 75.2867 18.2203C75.3599 18.3843 75.3957 18.5607 75.3915 18.7402H76.315ZM75.5917 17.1145C75.1317 16.6897 74.4646 16.4018 73.6465 16.2157L73.4429 17.1163C74.1837 17.2848 74.6735 17.5201 74.9667 17.7922L75.5917 17.1145ZM73.643 16.2157L70.8762 15.61L70.6796 16.5089L73.4464 17.1163L73.643 16.2157ZM70.8798 15.61C69.4033 15.273 68.3711 14.7498 67.7268 14.0792L67.0614 14.72C67.8778 15.5679 69.1031 16.1507 70.6761 16.5089L70.8798 15.61ZM67.7285 14.0827C67.0965 13.4173 66.77 12.5747 66.77 11.5161H65.8483C65.8483 12.7836 66.2468 13.8632 67.0597 14.7182L67.7268 14.0792L67.7285 14.0827ZM66.77 11.5161C66.77 10.6436 67.0123 9.89745 67.488 9.25842L66.7489 8.70893C66.1477 9.51989 65.8311 10.5067 65.8483 11.5161H66.77ZM67.488 9.25842C67.9708 8.60887 68.6467 8.09274 69.5332 7.71529L69.1716 6.86736C68.1569 7.29922 67.3423 7.91016 66.7489 8.70893L67.488 9.25842ZM69.535 7.71353C70.418 7.33258 71.4433 7.1342 72.6195 7.1342V6.21429C71.3397 6.21429 70.1863 6.42847 69.1698 6.86911L69.535 7.71529V7.71353ZM72.6195 7.1342C74.3224 7.1342 75.604 7.50813 76.5116 8.1928L77.0681 7.45547C75.948 6.60929 74.447 6.21429 72.6195 6.21429V7.1342ZM76.5116 8.1928C77.4385 8.88625 78.053 9.81318 78.3549 10.9912L79.2467 10.7629C78.8956 9.39009 78.1688 8.27882 77.0663 7.45547L76.5116 8.1928Z" fill="white"/>
    </g>
  </g>
  <defs>
    <clipPath id="clip0_28_300">
      <rect width="79" height="24.5778" fill="white" transform="translate(0.805176 0.408691)"/>
    </clipPath>
  </defs>
</svg>