<svg xmlns="http://www.w3.org/2000/svg" width="86" height="28" viewBox="0 0 86 28" fill="none">
  <g clip-path="url(#clip0_28_279)">
    <path d="M23.0691 12.3587C23.0691 16.7432 19.488 20.2988 15.0708 20.2988C10.652 20.2988 7.07097 16.7446 7.07097 12.3572M7.07097 12.3572C7.07097 7.97132 10.652 4.41718 15.0708 4.41718C19.488 4.41718 23.0691 7.97281 23.0691 12.3572C23.0691 18.2051 18.2934 22.945 12.4037 22.945C6.51396 22.945 1.73828 18.2051 1.73828 12.3572M7.07097 12.3572C7.07097 6.51084 11.8467 1.771 17.7364 1.771C23.6276 1.771 28.4017 6.51084 28.4017 12.3587" stroke="white" stroke-width="1.568" stroke-linecap="round" stroke-linejoin="round"/>
    <path d="M41.167 20.5302C39.8185 20.5418 38.4895 20.2076 37.3068 19.5596C36.1532 18.9091 35.1932 17.964 34.5247 16.8208C33.8497 15.6411 33.5122 14.3195 33.5122 12.853C33.5122 11.3866 33.8497 10.0709 34.5247 8.90614C35.1898 7.76571 36.1511 6.82655 37.3068 6.18827C38.4852 5.52721 39.8159 5.18541 41.167 5.1967C42.5767 5.1967 43.864 5.52673 45.0273 6.18827C46.207 6.83638 47.1329 7.74134 47.8094 8.90614C48.4859 10.0709 48.8234 11.3851 48.8234 12.853C48.8234 14.3195 48.4859 15.6426 47.8094 16.8208C47.149 17.9702 46.1869 18.9173 45.0273 19.5596C43.8625 20.2062 42.5767 20.5302 41.167 20.5302ZM41.167 18.3948C42.1601 18.3948 43.0442 18.1723 43.8207 17.7273C44.5972 17.2658 45.2005 16.6192 45.6321 15.7859C46.0771 14.9377 46.2996 13.9596 46.2996 12.853C46.2996 11.745 46.0771 10.7758 45.6321 9.94102C45.2294 9.13767 44.5995 8.47038 43.8207 8.02209C43.0442 7.57558 42.1601 7.35307 41.167 7.35307C40.1755 7.35307 39.2914 7.57707 38.5149 8.02209C37.7326 8.4731 37.0961 9.1391 36.6811 9.94102C36.251 10.7758 36.0344 11.745 36.0344 12.853C36.0344 13.9596 36.251 14.9377 36.6811 15.7859C37.1001 16.5909 37.7351 17.2631 38.5149 17.7273C39.2914 18.1723 40.1755 18.3948 41.167 18.3948ZM53.7006 10.2427C54.1187 9.69761 54.6862 9.23617 55.4045 8.86283C56.1594 8.48127 56.9958 8.28907 57.8416 8.30283C58.8765 8.30283 59.8188 8.56118 60.667 9.07937C61.5301 9.58262 62.2051 10.2934 62.6949 11.2148C63.1832 12.1332 63.4267 13.1905 63.4267 14.3837C63.4267 15.5784 63.1832 16.6491 62.6949 17.5973C62.2331 18.5024 61.5316 19.2633 60.667 19.797C59.8165 20.3153 58.8375 20.5844 57.8416 20.5736C56.9366 20.5736 56.1302 20.3944 55.4269 20.0345C54.7646 19.6951 54.1775 19.2258 53.7006 18.6546V26.0302H51.2426V8.49697H53.7006V10.2427ZM60.9253 14.3837C60.9253 13.5638 60.7536 12.8605 60.4086 12.2706C60.1064 11.6956 59.6409 11.2228 59.0706 10.9117C58.5344 10.598 57.9237 10.434 57.3025 10.4368C56.6843 10.4368 56.0959 10.5951 55.5344 10.9117C54.9878 11.2283 54.5428 11.6882 54.1979 12.2915C53.8663 12.8963 53.7006 13.6072 53.7006 14.427C53.7006 15.2468 53.8663 15.9651 54.1979 16.5834C54.5413 17.1882 54.9893 17.6481 55.5344 17.9647C56.0959 18.2798 56.6843 18.4381 57.3025 18.4381C57.9357 18.4381 58.5255 18.2798 59.0706 17.9647C59.6321 17.6332 60.0771 17.1583 60.4086 16.5401C60.7521 15.9218 60.9253 15.2035 60.9253 14.3837ZM65.0395 14.3837C65.0395 13.1905 65.2829 12.1332 65.7712 11.2133C66.2401 10.3287 66.9426 9.5895 67.8022 9.0761C68.6618 8.5627 69.6457 8.29474 70.6469 8.30134C71.5818 8.30134 72.3941 8.4895 73.084 8.86283C73.7874 9.22123 74.3489 9.67521 74.7655 10.2218V8.49697H77.2445V20.3794H74.7655V18.6113C74.3474 19.1713 73.7799 19.6387 73.0631 20.0121C72.3434 20.3854 71.5235 20.5736 70.6036 20.5736C69.5822 20.5736 68.6474 20.3152 67.7991 19.797C66.9418 19.2549 66.2428 18.4961 65.7727 17.5973C65.2829 16.6476 65.0395 15.5769 65.0395 14.3837ZM74.7655 14.4285C74.7655 13.6072 74.5923 12.8963 74.2474 12.293C73.9463 11.7193 73.4912 11.241 72.9332 10.9117C72.3965 10.5977 71.7854 10.4337 71.1636 10.4368C70.5319 10.4368 69.9421 10.5951 69.3955 10.9117C68.832 11.2312 68.3691 11.7019 68.059 12.2706C67.7275 12.8605 67.5617 13.5638 67.5617 14.3837C67.5617 15.2035 67.7275 15.9218 68.059 16.5401C68.4024 17.1583 68.8504 17.6332 69.3955 17.9647C69.957 18.2798 70.5454 18.4381 71.1636 18.4381C71.7968 18.4381 72.3867 18.2798 72.9317 17.9647C73.4783 17.6481 73.9173 17.1882 74.2474 16.5834C74.5923 15.9651 74.7655 15.2483 74.7655 14.4285ZM82.9341 4.42017V20.3794H80.4746V4.42017H82.9326H82.9341Z" fill="white"/>
    <mask id="mask0_28_279" style="mask-type:luminance" maskUnits="userSpaceOnUse" x="32" y="3" width="52" height="25">
      <path d="M32.7134 3.95264H83.4867V27.846H32.7134V3.95264Z" fill="white"/>
      <path d="M41.167 20.5302C39.8185 20.5418 38.4895 20.2076 37.3068 19.5596C36.1532 18.9091 35.1932 17.964 34.5247 16.8208C33.8497 15.6411 33.5122 14.3195 33.5122 12.853C33.5122 11.3866 33.8497 10.0709 34.5247 8.90614C35.1898 7.76571 36.1511 6.82655 37.3068 6.18827C38.4852 5.52721 39.8159 5.18541 41.167 5.1967C42.5767 5.1967 43.864 5.52673 45.0273 6.18827C46.207 6.83638 47.1329 7.74134 47.8094 8.90614C48.4859 10.0709 48.8234 11.3851 48.8234 12.853C48.8234 14.3195 48.4859 15.6426 47.8094 16.8208C47.149 17.9702 46.1869 18.9173 45.0273 19.5596C43.8625 20.2062 42.5767 20.5302 41.167 20.5302ZM41.167 18.3948C42.1601 18.3948 43.0442 18.1723 43.8207 17.7273C44.5972 17.2658 45.2005 16.6192 45.6321 15.7859C46.0771 14.9377 46.2996 13.9596 46.2996 12.853C46.2996 11.745 46.0771 10.7758 45.6321 9.94102C45.2294 9.13767 44.5995 8.47038 43.8207 8.02209C43.0442 7.57558 42.1601 7.35307 41.167 7.35307C40.1755 7.35307 39.2914 7.57707 38.5149 8.02209C37.7326 8.4731 37.0961 9.1391 36.6811 9.94102C36.251 10.7758 36.0344 11.745 36.0344 12.853C36.0344 13.9596 36.251 14.9377 36.6811 15.7859C37.1001 16.5909 37.7351 17.2631 38.5149 17.7273C39.2914 18.1723 40.1755 18.3948 41.167 18.3948ZM53.7006 10.2427C54.1187 9.69761 54.6862 9.23617 55.4045 8.86283C56.1594 8.48127 56.9958 8.28907 57.8416 8.30283C58.8765 8.30283 59.8188 8.56118 60.667 9.07937C61.5301 9.58262 62.2051 10.2934 62.6949 11.2148C63.1832 12.1332 63.4267 13.1905 63.4267 14.3837C63.4267 15.5784 63.1832 16.6491 62.6949 17.5973C62.2331 18.5024 61.5316 19.2633 60.667 19.797C59.8165 20.3153 58.8375 20.5844 57.8416 20.5736C56.9366 20.5736 56.1302 20.3944 55.4269 20.0345C54.7646 19.6951 54.1775 19.2258 53.7006 18.6546V26.0302H51.2426V8.49697H53.7006V10.2427ZM60.9253 14.3837C60.9253 13.5638 60.7536 12.8605 60.4086 12.2706C60.1064 11.6956 59.6409 11.2228 59.0706 10.9117C58.5344 10.598 57.9237 10.434 57.3025 10.4368C56.6843 10.4368 56.0959 10.5951 55.5344 10.9117C54.9878 11.2283 54.5428 11.6882 54.1979 12.2915C53.8663 12.8963 53.7006 13.6072 53.7006 14.427C53.7006 15.2468 53.8663 15.9651 54.1979 16.5834C54.5413 17.1882 54.9893 17.6481 55.5344 17.9647C56.0959 18.2798 56.6843 18.4381 57.3025 18.4381C57.9357 18.4381 58.5255 18.2798 59.0706 17.9647C59.6321 17.6332 60.0771 17.1583 60.4086 16.5401C60.7521 15.9218 60.9253 15.2035 60.9253 14.3837ZM65.0395 14.3837C65.0395 13.1905 65.2829 12.1332 65.7712 11.2133C66.2401 10.3287 66.9426 9.5895 67.8022 9.0761C68.6618 8.5627 69.6457 8.29474 70.6469 8.30134C71.5818 8.30134 72.3941 8.4895 73.084 8.86283C73.7874 9.22123 74.3489 9.67521 74.7655 10.2218V8.49697H77.2445V20.3794H74.7655V18.6113C74.3474 19.1713 73.7799 19.6387 73.0631 20.0121C72.3434 20.3854 71.5235 20.5736 70.6036 20.5736C69.5822 20.5736 68.6474 20.3152 67.7991 19.797C66.9418 19.2549 66.2428 18.4961 65.7727 17.5973C65.2829 16.6476 65.0395 15.5769 65.0395 14.3837ZM74.7655 14.4285C74.7655 13.6072 74.5923 12.8963 74.2474 12.293C73.9463 11.7193 73.4912 11.241 72.9332 10.9117C72.3965 10.5977 71.7854 10.4337 71.1636 10.4368C70.5319 10.4368 69.9421 10.5951 69.3955 10.9117C68.832 11.2312 68.3691 11.7019 68.059 12.2706C67.7275 12.8605 67.5617 13.5638 67.5617 14.3837C67.5617 15.2035 67.7275 15.9218 68.059 16.5401C68.4024 17.1583 68.8504 17.6332 69.3955 17.9647C69.957 18.2798 70.5454 18.4381 71.1636 18.4381C71.7968 18.4381 72.3867 18.2798 72.9317 17.9647C73.4783 17.6481 73.9173 17.1882 74.2474 16.5834C74.5923 15.9651 74.7655 15.2483 74.7655 14.4285ZM82.9341 4.42017V20.3794H80.4746V4.42017H82.9326H82.9341Z" fill="black"/>
    </mask>
    <g mask="url(#mask0_28_279)">
      <path d="M37.3069 19.5595L37.1128 19.9L37.1188 19.903L37.3069 19.5595ZM34.5249 16.8207L34.1844 17.0149L34.1874 17.0208L34.5249 16.8207ZM34.5249 8.90606L34.1874 8.70596V8.70894L34.5249 8.90606ZM45.0275 6.1882L44.8333 6.53017L44.8393 6.53316L45.0275 6.18969V6.1882ZM47.8095 16.8207L48.1485 17.0179L48.15 17.0164L47.8095 16.8222V16.8207ZM43.8209 17.7272L44.015 18.0662L44.021 18.0632L43.8209 17.7272ZM45.6323 15.7859L45.2843 15.6037V15.6052L45.6323 15.7844V15.7859ZM45.6323 9.94094L45.2828 10.1201L45.2858 10.1261L45.6323 9.94094ZM36.6812 9.93945L36.3363 9.75428L36.3333 9.76025L36.6812 9.93945ZM36.6812 15.7844L36.3318 15.9621L36.3363 15.9695L36.6812 15.7844ZM38.515 17.7257L38.3149 18.0632L38.3194 18.0647L38.515 17.7257ZM41.1672 20.1359C39.885 20.1478 38.6212 19.8305 37.4966 19.2145L37.1188 19.9015C38.3582 20.5824 39.7097 20.9214 41.1672 20.9214V20.1389V20.1359ZM37.5011 19.2175C36.4067 18.6007 35.496 17.7039 34.8623 16.6191L34.1874 17.0208C34.891 18.2227 35.901 19.2147 37.1143 19.8985L37.5011 19.2175ZM34.8653 16.6251C34.2262 15.5096 33.9036 14.2552 33.9036 12.8515H33.1196C33.1196 14.3806 33.4721 15.7709 34.1844 17.0149L34.8653 16.6251ZM33.9051 12.8515C33.9051 11.4477 34.2277 10.2008 34.8653 9.10169L34.1874 8.70894C33.4735 9.93945 33.1196 11.3208 33.1196 12.8515H33.9051ZM34.8638 9.10318C35.494 8.02324 36.4048 7.1341 37.4996 6.53017L37.1188 5.84324C35.9019 6.51525 34.8895 7.50391 34.1889 8.70446L34.8638 9.10318ZM37.5011 6.52868C38.6207 5.90081 39.8851 5.5765 41.1687 5.58788V4.80238C39.7097 4.80238 38.3567 5.15033 37.1173 5.84473L37.5011 6.52868ZM41.1687 5.58788C42.5127 5.58788 43.7327 5.90148 44.8363 6.52868L45.2231 5.84622C43.9869 5.1478 42.5884 4.78775 41.1687 4.80238V5.58788ZM44.8408 6.53166C45.9578 7.14393 46.8329 7.99812 47.4721 9.1002L48.15 8.70745C47.4573 7.49944 46.4424 6.50779 45.2186 5.84324L44.8408 6.53017V6.53166ZM47.4721 9.1002C48.1097 10.2008 48.4323 11.4477 48.4323 12.8515H49.2178C49.2178 11.3223 48.8638 9.93796 48.15 8.70745L47.4721 9.1002ZM48.4323 12.8515C48.4323 14.2552 48.1097 15.5096 47.4706 16.6251L48.1515 17.0134C48.8638 15.7709 49.2178 14.3806 49.2178 12.8515H48.4323ZM47.4721 16.6221C46.847 17.7109 45.9361 18.6079 44.8378 19.216L45.2216 19.9C46.442 19.2233 47.4546 18.2262 48.15 17.0164L47.4721 16.6221ZM44.8378 19.216C43.7145 19.8352 42.4513 20.1526 41.1687 20.1374L41.1672 20.9214C42.6396 20.9214 43.9941 20.5824 45.2201 19.9015L44.8393 19.2145L44.8378 19.216ZM41.1687 18.786C42.2215 18.786 43.1757 18.5485 44.0165 18.0647L43.6267 17.3852C42.9159 17.7929 42.1005 18.002 41.1687 18.002V18.786ZM44.021 18.0632C44.8613 17.5652 45.5417 16.8372 45.9817 15.9651L45.2843 15.6037C44.9121 16.3455 44.3362 16.9649 43.6222 17.3882L44.0225 18.0632H44.021ZM45.9802 15.9665C46.4596 15.0541 46.694 14.0118 46.694 12.8515H45.91C45.91 13.9043 45.698 14.8182 45.2858 15.6022L45.9802 15.9665ZM46.694 12.8515C46.694 11.6911 46.4596 10.6548 45.9787 9.75428L45.2873 10.1246C45.698 10.8922 45.91 11.7972 45.91 12.8515H46.694ZM45.9817 9.76025C45.5447 8.88921 44.8613 8.16583 44.0165 7.68004L43.6267 8.361C44.3346 8.76718 44.8856 9.34958 45.2828 10.1201L45.9817 9.76025ZM44.015 7.68153C43.1742 7.19769 42.22 6.96174 41.1672 6.96174V7.74425C42.099 7.74425 42.9144 7.95481 43.6252 8.36249L44.015 7.68004V7.68153ZM41.1672 6.96174C40.1144 6.96174 39.1617 7.19769 38.3194 7.68153L38.7092 8.36249C39.42 7.95332 40.2369 7.74425 41.1672 7.74425V6.96174ZM38.3194 7.68153C37.4738 8.16993 36.7856 8.89022 36.3363 9.75726L37.0277 10.1261C37.4082 9.38922 37.9909 8.77708 38.7092 8.36249L38.3194 7.68153ZM36.3333 9.76025C35.8689 10.6577 35.6434 11.6941 35.6434 12.8529H36.4274C36.4274 11.7972 36.6319 10.8907 37.0307 10.1201L36.3333 9.76025ZM35.6434 12.8529C35.6434 14.0118 35.8689 15.0496 36.3318 15.9621L37.0322 15.6081C36.632 14.8227 36.4274 13.9087 36.4274 12.8529H35.6434ZM36.3363 15.9695C36.8141 16.8625 37.4742 17.5659 38.3149 18.0647L38.7151 17.3897C37.9968 16.9624 37.4123 16.3428 37.0277 15.6007L36.3363 15.9695ZM38.3194 18.0647C39.1617 18.5485 40.1144 18.7875 41.1672 18.7875V18.0035C40.2369 18.0035 39.42 17.7944 38.7107 17.3867L38.3194 18.0647ZM53.7008 10.2426H53.3095V11.4029L54.0129 10.4815L53.7008 10.2426ZM60.6671 9.07929L60.4626 9.4138L60.47 9.41678L60.6671 9.07929ZM62.6951 17.5973L63.0415 17.7795L63.043 17.7765L62.6951 17.5973ZM55.4255 20.0344L55.2434 20.3808L55.2478 20.3838L55.4255 20.0344ZM53.7008 18.6545L54.0054 18.4067L53.3095 17.5525V18.6545H53.7008ZM53.7008 26.0301V26.4214H54.0935V26.0301H53.7008ZM51.2427 26.0301H50.8515V26.4214H51.2427V26.0301ZM51.2427 8.49689V8.10265H50.8515V8.4954H51.2427V8.49689ZM53.7008 8.49689H54.0935V8.10265H53.7008V8.4954V8.49689ZM60.4088 12.2705L60.0653 12.4587L60.0698 12.4692L60.4088 12.2705ZM59.0708 10.9116L58.8752 11.2506L58.8856 11.2566L59.0708 10.9131V10.9116ZM55.5346 10.9116L55.3419 10.5696L55.3374 10.5726L55.5346 10.9116ZM54.198 12.2915L53.8575 12.0973L53.8531 12.1033L54.1965 12.2915H54.198ZM54.198 16.5833L53.8516 16.7685L53.8575 16.7789L54.198 16.5848V16.5833ZM55.5346 17.9646L55.3374 18.3036L55.3419 18.3051L55.5346 17.9646ZM59.0708 17.9646L59.2679 18.3036L59.2709 18.3021L59.0708 17.9646ZM60.4088 16.54L60.0653 16.3488L60.0623 16.3563L60.4088 16.54ZM54.0129 10.4815C54.3892 9.98873 54.9089 9.56313 55.5853 9.2122L55.2254 8.51481C54.4638 8.91054 53.8471 9.40633 53.3901 10.0052L54.0129 10.4815ZM55.5853 9.2122C56.2424 8.86873 56.9921 8.69401 57.8418 8.69401V7.91001C56.8801 7.91001 56.0065 8.10862 55.2254 8.51481L55.5853 9.2122ZM57.8418 8.69401C58.8079 8.69401 59.6786 8.93444 60.4626 9.4138L60.8717 8.74329C59.9596 8.18756 58.9098 7.89886 57.8418 7.91001V8.69401ZM60.47 9.41678C61.266 9.8827 61.8917 10.5383 62.3486 11.3969L63.0401 11.0296C62.546 10.076 61.7915 9.28213 60.8643 8.7403L60.47 9.41678ZM62.3486 11.3969C62.8026 12.2541 63.0356 13.2457 63.0356 14.3836H63.8196C63.8196 13.1352 63.5642 12.0137 63.0401 11.0296L62.3486 11.3969ZM63.0356 14.3836C63.0356 15.5215 62.8026 16.531 62.3457 17.4181L63.043 17.7765C63.5642 16.7655 63.8196 15.632 63.8196 14.3836H63.0356ZM62.3471 17.4151C61.918 18.2575 61.2656 18.9658 60.4611 19.4624L60.8732 20.13C61.7973 19.5594 62.5472 18.7464 63.0415 17.7795L62.3471 17.4151ZM60.4626 19.4609C59.6737 19.9419 58.7656 20.1913 57.8418 20.1807V20.9662C58.9468 20.9662 59.9593 20.6885 60.8717 20.1315L60.4611 19.4624L60.4626 19.4609ZM57.8418 20.1807C56.9906 20.1807 56.2469 20.012 55.6047 19.6849L55.2478 20.3838C56.0154 20.7751 56.883 20.9662 57.8418 20.9662V20.1807ZM55.6107 19.6879C54.995 19.373 54.449 18.9372 54.0054 18.4067L53.3976 18.9024C53.8799 19.4938 54.4982 19.9851 55.2434 20.3808L55.6107 19.6879ZM53.3095 18.6545V26.0301H54.0935V18.6531L53.3095 18.6545ZM53.7008 25.6374H51.2427V26.4214H53.7008V25.6374ZM51.6355 26.0301V8.49689H50.8515V26.0286H51.6355V26.0301ZM51.2427 8.88814H53.7008V8.10414H51.2427V8.88814ZM53.3095 8.49689V10.2441H54.0935V8.49689H53.3095ZM61.3182 14.3836C61.3182 13.5085 61.1331 12.7335 60.7463 12.0719L60.0698 12.4692C60.373 12.9873 60.5327 13.619 60.5327 14.3836H61.3182ZM60.7523 12.0824C60.414 11.441 59.894 10.9138 59.2574 10.5666L58.8841 11.2566C59.3739 11.5194 59.7682 11.9151 60.0653 12.4587L60.7523 12.0824ZM59.2679 10.5726C58.6717 10.2244 57.9931 10.0424 57.3027 10.0455V10.8295C57.8671 10.8295 58.3883 10.9699 58.8752 11.2506L59.2679 10.5726ZM57.3027 10.0455C56.6157 10.0455 55.9587 10.2217 55.3419 10.5696L55.7272 11.2536C56.2319 10.9699 56.7546 10.8295 57.3027 10.8295V10.0455ZM55.3374 10.5726C54.7252 10.9265 54.2324 11.4388 53.8575 12.0973L54.5385 12.4856C54.8521 11.936 55.2508 11.5299 55.7317 11.2506L55.3374 10.5726ZM53.8531 12.1033C53.4857 12.7753 53.3095 13.5548 53.3095 14.4269H54.0935C54.0935 13.6608 54.2473 13.0157 54.5415 12.4796L53.8531 12.1033ZM53.3095 14.4269C53.3095 15.3005 53.4857 16.0845 53.8516 16.7685L54.543 16.3981C54.2473 15.8456 54.0935 15.193 54.0935 14.4269H53.3095ZM53.8575 16.7789C54.2324 17.436 54.7252 17.9482 55.3374 18.3021L55.7317 17.6241C55.2296 17.3275 54.8169 16.9008 54.537 16.3892L53.8575 16.7774V16.7789ZM55.3419 18.3051C55.9587 18.6531 56.6142 18.8308 57.3027 18.8308V18.0468C56.7546 18.0468 56.2319 17.9064 55.7272 17.6227L55.3419 18.3051ZM57.3027 18.8308C58.0045 18.8308 58.6616 18.6545 59.2679 18.3036L58.8752 17.6241C58.3985 17.9037 57.8553 18.0497 57.3027 18.0468V18.8308ZM59.2709 18.3021C59.8981 17.9318 60.3924 17.4016 60.7538 16.7252L60.0623 16.3563C59.7637 16.9148 59.3665 17.3344 58.8722 17.6256L59.2709 18.3021ZM60.7508 16.7311C61.1331 16.0457 61.3182 15.2602 61.3182 14.3836H60.5342C60.5342 15.1467 60.3715 15.7978 60.0653 16.3488L60.7508 16.7311ZM65.7729 11.2133L65.4294 11.0251L65.4264 11.0296L65.7729 11.2133ZM67.7993 9.0778L67.9994 9.41529H68.0024L67.7993 9.0778ZM73.0842 8.86276L72.8961 9.20772L72.905 9.2122L73.0842 8.86276ZM74.7657 10.2217L74.4536 10.4606L75.1585 11.382V10.2217H74.7657ZM74.7657 8.49689V8.10265H74.373V8.4954H74.7657V8.49689ZM77.2446 8.49689H77.6374V8.10265H77.2461V8.4954L77.2446 8.49689ZM77.2446 20.3793V20.7706H77.6374V20.3793H77.2446ZM74.7657 20.3793H74.373V20.7706H74.7657V20.3793ZM74.7657 18.6112H75.1585V17.427L74.4506 18.3768L74.7657 18.6112ZM67.7993 19.7969L67.5902 20.13L67.5962 20.1315L67.7993 19.7969ZM65.7729 17.5973L65.4234 17.7765L65.4279 17.7839L65.7729 17.5973ZM74.2475 12.2915L73.9041 12.4796L73.907 12.4871L74.2475 12.2915ZM69.3957 10.9116L69.5853 11.2551L69.5928 11.2506L69.3957 10.9116ZM68.0591 12.2705L67.7187 12.0764L67.7172 12.0779L68.0591 12.2705ZM68.0591 16.5415L67.7127 16.7252L67.7157 16.7311L68.0591 16.5415ZM69.3957 17.9646L69.1926 18.2991L69.203 18.3051L69.3957 17.9646ZM74.2475 16.5833L73.9055 16.3921V16.3951L74.2475 16.5833ZM65.4309 14.3836C65.4309 13.2457 65.6638 12.2541 66.1178 11.3969L65.4264 11.0296C64.9037 12.0152 64.6469 13.1352 64.6469 14.3836H65.4309ZM66.1178 11.4014C66.5517 10.5799 67.2025 9.89294 67.9994 9.41529L67.5992 8.7418C66.6812 9.29137 65.9309 10.0814 65.4294 11.0266L66.1178 11.4014ZM68.0024 9.41529C68.7999 8.93525 69.7148 8.68559 70.6456 8.69401V7.91001C69.5729 7.90142 68.5187 8.18927 67.5992 8.7418L68.0024 9.41529ZM70.6456 8.69401C71.5282 8.69401 72.2718 8.87022 72.8961 9.20772L73.2709 8.5178C72.5123 8.10862 71.6327 7.91001 70.6456 7.91001V8.69401ZM72.905 9.2122C73.5651 9.54969 74.0773 9.96782 74.4536 10.4606L75.0778 9.98425C74.5913 9.36317 73.9705 8.86029 73.2619 8.51332L72.905 9.2122ZM75.1585 10.2217V8.49689H74.373V10.2217H75.1585ZM74.7657 8.88814H77.2446V8.10414H74.7657V8.88814ZM76.8534 8.49689V20.3793H77.6374V8.49689H76.8534ZM77.2461 19.9866H74.7657V20.7706H77.2446L77.2461 19.9866ZM75.1585 20.3793V18.6112H74.373V20.3793H75.1585ZM74.4506 18.3768C74.0743 18.883 73.5546 19.3146 72.8811 19.6655L73.2425 20.3599C74.0056 19.9642 74.6223 19.4595 75.0793 18.8442L74.4506 18.3768ZM72.8811 19.6655C72.2241 20.006 71.4699 20.1807 70.6038 20.1807V20.9662C71.5774 20.9662 72.4615 20.7676 73.2425 20.3599L72.8811 19.6655ZM70.6038 20.1807C69.6525 20.1807 68.7894 19.9418 68.0054 19.4624L67.5962 20.1315C68.5007 20.6861 69.5428 20.9754 70.6038 20.9662V20.1807ZM68.0084 19.4639C67.2082 18.9581 66.556 18.2497 66.1178 17.4106L65.4279 17.7839C65.961 18.774 66.6823 19.5595 67.5917 20.1285L68.0084 19.4654V19.4639ZM66.1208 17.4181C65.6638 16.531 65.4309 15.5215 65.4309 14.3836H64.6469C64.6469 15.632 64.9037 16.7655 65.4234 17.7765L66.1208 17.4181ZM75.1585 14.4269C75.1585 13.5518 74.9733 12.7693 74.588 12.0973L73.907 12.4871C74.2132 13.0232 74.3745 13.6638 74.3745 14.4269H75.1585ZM74.591 12.1033C74.2552 11.4672 73.749 10.9372 73.129 10.5726L72.7363 11.2506C73.2141 11.5284 73.6054 11.9331 73.9041 12.4796L74.591 12.1033ZM73.129 10.5726C72.5328 10.2244 71.8542 10.0424 71.1638 10.0455V10.8295C71.7283 10.8295 72.2494 10.9699 72.7363 11.2506L73.129 10.5726ZM71.1638 10.0455C70.4619 10.0455 69.8049 10.2202 69.1986 10.5711L69.5928 11.2506C70.0692 10.9719 70.6118 10.8249 71.1638 10.828V10.0455ZM69.2075 10.5666C68.5804 10.9209 68.0647 11.4433 67.7187 12.0749L68.3996 12.4632C68.7132 11.9151 69.109 11.5164 69.5853 11.2536L69.2075 10.5666ZM67.7172 12.0779C67.3468 12.738 67.1706 13.51 67.1706 14.3821H67.9546C67.9546 13.616 68.1084 12.9799 68.4011 12.4602L67.7172 12.0779ZM67.1706 14.3821C67.1706 15.2557 67.3468 16.0397 67.7127 16.7237L68.4041 16.3548C68.1084 15.8023 67.9561 15.1482 67.9561 14.3836H67.1706V14.3821ZM67.7157 16.7311C68.0905 17.4031 68.5818 17.9288 69.1941 18.2976L69.5988 17.6256C69.0939 17.3125 68.6807 16.8715 68.4011 16.3473L67.7157 16.7311ZM69.203 18.3051C69.8198 18.6531 70.4754 18.8293 71.1638 18.8293V18.0453C70.6157 18.0453 70.0931 17.9049 69.5883 17.6212L69.203 18.3051ZM71.1638 18.8293C71.8657 18.8293 72.5227 18.6531 73.129 18.3021L72.7363 17.6227C72.2596 17.9022 71.7164 18.0482 71.1638 18.0453V18.8293ZM73.129 18.3021C73.7495 17.937 74.2561 17.4065 74.5925 16.77L73.9055 16.3921C73.638 16.9028 73.233 17.33 72.7363 17.6227L73.129 18.3021ZM74.591 16.7729C74.9733 16.0875 75.1585 15.3005 75.1585 14.4254H74.373C74.373 15.1885 74.2132 15.8396 73.9055 16.3907L74.591 16.7729ZM82.9342 4.4186H83.3255V4.02734H82.9327V4.4186H82.9342ZM82.9342 20.3779V20.7691H83.3255V20.3779H82.9327H82.9342ZM80.4747 20.3779H80.0835V20.7691H80.4747V20.3779ZM80.4747 4.4186V4.02734H80.0835V4.4186H80.4747ZM82.5415 4.4186V20.3779H83.3255V4.4186H82.5415ZM82.9327 19.9851H80.4747V20.7691H82.9327V19.9851ZM80.8675 20.3779V4.42009L80.0835 4.4186V20.3793H80.8675V20.3779ZM80.4747 4.81134H82.9327V4.02734H80.4747V4.81134Z" fill="white"/>
    </g>
  </g>
  <defs>
    <clipPath id="clip0_28_279">
      <rect width="85.12" height="26.88" fill="white" transform="translate(0.245117 0.277588)"/>
    </clipPath>
  </defs>
</svg>